<?xml version="1.0" encoding="UTF-8"?>
<svg id="Layer_1" data-name="Layer 1" xmlns="http://www.w3.org/2000/svg" width="1440" height="5100" xmlns:xlink="http://www.w3.org/1999/xlink" viewBox="0 0 1440 5100">
  <defs>
    <style>
      .cls-1, .cls-2, .cls-3, .cls-4, .cls-5, .cls-6, .cls-7, .cls-8 {
        fill: none;
      }

      .cls-1, .cls-7 {
        stroke: #83b89c;
      }

      .cls-2 {
        stroke: #fffdf9;
      }

      .cls-9 {
        letter-spacing: .05em;
      }

      .cls-10 {
        letter-spacing: .03em;
      }

      .cls-11, .cls-12, .cls-13, .cls-14, .cls-15, .cls-16, .cls-17, .cls-18, .cls-19, .cls-20, .cls-21, .cls-22, .cls-23, .cls-24, .cls-25, .cls-26, .cls-27, .cls-28, .cls-29, .cls-30, .cls-31, .cls-32, .cls-33, .cls-34, .cls-35, .cls-36, .cls-37, .cls-38, .cls-39, .cls-7, .cls-40, .cls-41, .cls-42, .cls-43, .cls-44, .cls-45, .cls-46, .cls-47, .cls-48 {
        isolation: isolate;
      }

      .cls-11, .cls-12, .cls-13, .cls-16, .cls-17, .cls-30, .cls-33, .cls-49, .cls-50, .cls-36, .cls-51, .cls-46 {
        font-size: 14px;
      }

      .cls-11, .cls-17, .cls-23, .cls-24, .cls-26, .cls-27, .cls-32, .cls-33, .cls-39, .cls-46, .cls-48 {
        font-family: Arial-BoldMT, Arial;
        font-weight: 700;
      }

      .cls-11, .cls-18, .cls-52, .cls-23, .cls-27, .cls-49, .cls-36, .cls-40, .cls-53, .cls-43, .cls-54, .cls-45, .cls-47 {
        fill: #fffdf9;
      }

      .cls-12, .cls-13, .cls-16, .cls-25, .cls-55, .cls-56, .cls-57, .cls-30, .cls-49, .cls-50, .cls-36, .cls-37, .cls-38, .cls-51 {
        font-family: ArialMT, Arial;
      }

      .cls-12, .cls-14, .cls-17, .cls-20, .cls-58, .cls-56, .cls-32, .cls-33, .cls-34, .cls-35, .cls-37, .cls-59, .cls-39, .cls-60, .cls-46 {
        fill: #153d31;
      }

      .cls-3, .cls-6 {
        stroke: #153d31;
      }

      .cls-13, .cls-57, .cls-38, .cls-51 {
        fill: #28231f;
      }

      .cls-14, .cls-18, .cls-20, .cls-21, .cls-58, .cls-61, .cls-31, .cls-35, .cls-40, .cls-42, .cls-53, .cls-43, .cls-60, .cls-54, .cls-47 {
        font-family: Gelasio-Regular, Gelasio;
      }

      .cls-14, .cls-18, .cls-58, .cls-34, .cls-53 {
        font-size: 54px;
      }

      .cls-15, .cls-62, .cls-21, .cls-26, .cls-41, .cls-44 {
        fill: #83b89c;
      }

      .cls-15, .cls-22, .cls-7 {
        opacity: .55;
      }

      .cls-17, .cls-63 {
        letter-spacing: .06em;
      }

      .cls-64 {
        letter-spacing: .06em;
      }

      .cls-19 {
        opacity: .18;
      }

      .cls-19, .cls-24, .cls-28, .cls-65, .cls-61, .cls-31, .cls-42, .cls-48 {
        fill: #c06c46;
      }

      .cls-66 {
        fill: #f5eee4;
      }

      .cls-4, .cls-8 {
        stroke: #c06c46;
      }

      .cls-20, .cls-21, .cls-31, .cls-43 {
        font-size: 70px;
      }

      .cls-67, .cls-26, .cls-27, .cls-48 {
        letter-spacing: .18em;
      }

      .cls-22, .cls-25, .cls-55, .cls-30, .cls-68, .cls-50 {
        fill: #e9d8c6;
      }

      .cls-23, .cls-32 {
        font-size: 27px;
      }

      .cls-24, .cls-26, .cls-27, .cls-39, .cls-48 {
        font-size: 13px;
      }

      .cls-25, .cls-55, .cls-56, .cls-57, .cls-37, .cls-38 {
        font-size: 18px;
      }

      .cls-69 {
        letter-spacing: .14em;
      }

      .cls-70 {
        letter-spacing: -.06em;
      }

      .cls-28, .cls-61, .cls-42 {
        font-size: 68.02px;
      }

      .cls-28, .cls-34, .cls-45 {
        font-family: Gelasio-Italic, Gelasio;
        font-style: italic;
      }

      .cls-6 {
        stroke-width: 1.5px;
      }

      .cls-71 {
        clip-path: url(#clippath-1);
      }

      .cls-72 {
        letter-spacing: .18em;
      }

      .cls-73 {
        letter-spacing: .02em;
      }

      .cls-33, .cls-74 {
        letter-spacing: .07em;
      }

      .cls-75 {
        clip-path: url(#clippath-3);
      }

      .cls-76 {
        letter-spacing: -.02em;
      }

      .cls-35, .cls-60 {
        font-size: 46.76px;
      }

      .cls-77 {
        letter-spacing: .16em;
      }

      .cls-8 {
        stroke-width: 5px;
      }

      .cls-40, .cls-54, .cls-45 {
        font-size: 51.94px;
      }

      .cls-41 {
        opacity: .52;
      }

      .cls-78 {
        letter-spacing: .1em;
      }

      .cls-79 {
        letter-spacing: 0em;
      }

      .cls-44 {
        opacity: .38;
      }

      .cls-80 {
        letter-spacing: .04em;
      }

      .cls-81 {
        clip-path: url(#clippath-2);
      }

      .cls-82 {
        letter-spacing: .02em;
      }

      .cls-83 {
        fill: #d6bfab;
      }

      .cls-84 {
        letter-spacing: .1em;
      }

      .cls-85 {
        fill: #d6c0b0;
      }

      .cls-86 {
        letter-spacing: .03em;
      }

      .cls-87 {
        fill: url(#linear-gradient);
      }

      .cls-47 {
        font-size: 49.27px;
      }

      .cls-88 {
        clip-path: url(#clippath);
      }

      .cls-89 {
        letter-spacing: .07em;
      }
    </style>
    <clipPath id="clippath">
      <rect class="cls-5" x="92" y="2845" width="610" height="510" rx="50" ry="50"/>
    </clipPath>
    <clipPath id="clippath-1">
      <rect class="cls-5" x="772" y="2204.67" width="576" height="500" rx="50" ry="50"/>
    </clipPath>
    <clipPath id="clippath-2">
      <rect class="cls-5" x="92" y="1488" width="610" height="550" rx="50" ry="50"/>
    </clipPath>
    <linearGradient id="linear-gradient" x1="-1404.02" y1="4674.97" x2="-1403.02" y2="4674.97" gradientTransform="translate(2021795 3927504.34) scale(1440 -840)" gradientUnits="userSpaceOnUse">
      <stop offset="0" stop-color="#f5eee4"/>
      <stop offset="1" stop-color="#e9d8c6"/>
    </linearGradient>
    <clipPath id="clippath-3">
      <path class="cls-5" d="M790,164h510v556c0,78-63,142-141,142h-229c-78,0-140-64-140-142V164Z"/>
    </clipPath>
  </defs>
  <g id="footer">
    <rect class="cls-59" y="5000" width="1440" height="100"/>
    <g id="svg-onixfitlogo">
      <g>
        <path class="cls-65" d="M166.13,5040.29c0,8.44-6.84,15.28-15.28,15.28s-15.28-6.84-15.28-15.28,6.84-15.28,15.28-15.28c8.43,0,15.27,6.84,15.28,15.28ZM161.03,5040.29c0-5.63-4.56-10.19-10.18-10.19s-10.18,4.56-10.18,10.19,4.56,10.19,10.18,10.19c5.62,0,10.18-4.56,10.18-10.19Z"/>
        <path class="cls-65" d="M194.76,5025.01v30.66l-19.1-18.67v18.55h-5.09v-30.65l19.1,18.67v-18.56h5.09Z"/>
        <path class="cls-65" d="M199.21,5055.56v-30.55h5.09v30.55h-5.09Z"/>
        <path class="cls-65" d="M225.01,5040.29l10.13,15.27h-6.11l-7.08-10.66-7.08,10.66h-6.11l10.13-15.27-10.14-15.28h6.11l7.08,10.67,7.08-10.67h6.11l-10.14,15.28Z"/>
      </g>
      <g>
        <path class="cls-65" d="M109.62,5023.56c-8.82,0-16.09,7.18-16.2,16,0,.07,0,.34,0,.41.11,4.2,3.49,7.49,7.69,7.49.98,0,1.91-.18,2.77-.52l-.99-.91v-12.53l6.81-6.26,4.45,4.1c1.21-.57,2.55-.89,3.98-.89,2.24,0,4.36.78,6.04,2.22-2.65-5.38-8.2-9.1-14.55-9.1Z"/>
        <path class="cls-62" d="M125.82,5039.56c-.11-4.2-3.49-7.49-7.69-7.49-.93,0-1.83.17-2.66.47l1.04.96v12.53l-6.81,6.26-4.51-4.15c-1.23.6-2.62.94-4.08.94-2.24,0-4.36-.78-6.04-2.22,2.65,5.38,8.2,9.1,14.55,9.1,8.82,0,16.09-7.18,16.2-16h0c0-.07,0-.34,0-.41Z"/>
      </g>
      <path class="cls-65" d="M134.02,5060.7c.44,0,.88,0,1.33,0-.11,1.31-.35,3.99-.35,3.99h2.42l-.11,1.27h-2.42c-.33,4.65-.4,4.57-.81,9.22-.16,1.9,1.69,1.71,2.27,1.7l-.1,1.18h-1.35c-1.31,0-2.3-1.08-2.15-2.8l.81-9.3h-1.9s.11-1.27.11-1.27c.59,0,1.31,0,1.91,0,0,0,.24-2.65.35-3.98Z"/>
      <path class="cls-65" d="M126.46,5068.59c.37-2.17,1.24-2.68,1.59-4.06-1.35,1.26-2.24,1.61-2.86,3.31-.55,1.52.25,3.35-.78,6.46-.42,1.27-.55,2.28-.73,3.75,1.44-2.27,2.58-2.74,2.68-6.76.03-1.03-.08-1.67.1-2.7Z"/>
      <path class="cls-62" d="M126.46,5064.53c-.07.85-.82,1.53-1.67,1.53s-1.47-.69-1.4-1.53.82-1.53,1.67-1.53,1.47.69,1.4,1.53Z"/>
      <path class="cls-65" d="M119.67,5065.76h-2.51s.2-2.35.36-2.97c.32-1.13,1.52-1.49,2.53-1.54.04-.43.08-.87.11-1.3-1.23,0-2.66.34-3.44,1.47-.37.53-.55,1.09-.61,1.69l-.23,2.66h-1.87l-.11,1.27h1.87c-.43,4.84-.54,6.19-.96,11.03h1.27l.95-11.03h2.52l.11-1.27Z"/>
      <g>
        <path class="cls-65" d="M152.92,5064.35c-.8,0-2.14.04-3.16.27v13.19h2.03v-5.02s2.01.05,3.19-.21c1.18-.26,2.96-1.34,2.96-3.84,0-2.29-1.45-4.39-5.03-4.39ZM152.77,5071.05h-.98v-4.9c.33-.03.76-.05,1.27-.05,2.28,0,2.75,1.53,2.75,2.61,0,1.5-1.07,2.33-3.05,2.33Z"/>
        <rect class="cls-65" x="164.62" y="5064.46" width="2.03" height="13.35"/>
        <polygon class="cls-65" points="175.93 5064.46 173.9 5064.46 173.9 5077.81 180.95 5077.81 180.95 5076.06 175.93 5076.06 175.93 5064.46"/>
        <path class="cls-65" d="M190.17,5064.46h-1.94c-.32.67-3.01,8.96-4.07,12.18l-.39,1.17h2.11l1.43-4.45h3.74l1.41,4.45h2.19l-.37-1.11c-1.05-3.18-3.78-11.56-4.11-12.24ZM187.84,5071.72l1.35-4.22,1.34,4.22h-2.69Z"/>
        <polygon class="cls-65" points="196.55 5066.22 199.98 5066.22 199.98 5077.81 202.02 5077.81 202.02 5066.22 205.46 5066.22 205.46 5064.46 196.55 5064.46 196.55 5066.22"/>
        <polygon class="cls-65" points="211.04 5070.99 215.62 5070.99 215.62 5069.3 211.04 5069.3 211.04 5066.18 216.18 5066.18 216.18 5064.46 209.01 5064.46 209.01 5077.81 216.57 5077.81 216.57 5076.09 211.04 5076.09 211.04 5070.99"/>
        <path class="cls-65" d="M225.28,5069.82c-1.31-.66-2.39-1.52-2.49-2.35-.21-1.59,2.37-2.02,4.41-.88l.63-1.64c-.42-.24-1.48-.74-3.14-.74-1.2,0-2.15.29-2.85.86-.7.57-1.05,1.37-1.05,2.38,0,3.78,5.8,3.82,5.88,6.4.03,1.15-.86,2.44-2.68,2.46-1.48.02-2.3-.43-2.83-.72l-.6,1.66c.16.09,1.64.82,3.56.82,1.38,0,2.62-.59,3.23-1.26.89-.97,1.24-2.01,1.24-3.02,0-1.33-.73-2.65-3.31-3.95Z"/>
      </g>
    </g>
    <g class="cls-29">
      <path class="cls-85" d="M593.4,5048.91l3.85-10.02h1.43l4.1,10.02h-1.51l-1.17-3.04h-4.19l-1.1,3.04h-1.41ZM596.29,5044.79h3.4l-1.05-2.78c-.32-.84-.56-1.54-.71-2.08-.13.64-.31,1.28-.54,1.91l-1.1,2.94Z"/>
      <path class="cls-85" d="M605.45,5048.91l-2.76-7.26h1.3l1.56,4.35c.17.47.32.96.46,1.46.11-.38.26-.84.46-1.38l1.61-4.43h1.26l-2.75,7.26h-1.15Z"/>
      <path class="cls-85" d="M609.74,5048.91v-1.4h1.4v1.4h-1.4Z"/>
      <path class="cls-85" d="M617.33,5048.91v-10.02h3.45c.78,0,1.37.05,1.78.14.57.13,1.06.37,1.47.72.53.45.92,1.02,1.19,1.71s.39,1.49.39,2.38c0,.76-.09,1.44-.27,2.02s-.41,1.07-.68,1.46-.58.69-.91.91c-.33.22-.73.39-1.2.5-.47.11-1,.17-1.61.17h-3.62ZM618.65,5047.72h2.14c.66,0,1.18-.06,1.56-.19s.68-.29.9-.52c.31-.31.56-.74.73-1.27s.26-1.17.26-1.93c0-1.05-.17-1.85-.52-2.42s-.76-.94-1.25-1.13c-.36-.14-.93-.21-1.72-.21h-2.11v7.66Z"/>
      <path class="cls-85" d="M627.27,5048.91v-7.26h1.11v1.1c.28-.52.54-.86.78-1.02s.5-.25.79-.25c.41,0,.84.13,1.26.4l-.42,1.14c-.3-.18-.6-.27-.9-.27-.27,0-.51.08-.72.24-.21.16-.37.39-.46.67-.14.44-.21.92-.21,1.44v3.8h-1.23Z"/>
      <path class="cls-85" d="M631.52,5048.91v-1.4h1.4v1.4h-1.4Z"/>
      <path class="cls-85" d="M638.66,5045.69l1.25-.11c.06.5.2.91.41,1.23.22.32.55.58,1.01.78.46.2.97.3,1.54.3.51,0,.95-.08,1.34-.23s.68-.36.86-.62c.19-.26.28-.55.28-.86s-.09-.59-.27-.82c-.18-.23-.48-.43-.9-.59-.27-.11-.86-.27-1.78-.49-.92-.22-1.57-.43-1.93-.62-.48-.25-.83-.56-1.07-.93-.23-.37-.35-.79-.35-1.25,0-.51.14-.98.43-1.42.29-.44.71-.77,1.26-1,.55-.23,1.16-.34,1.84-.34.74,0,1.4.12,1.97.36.57.24,1,.59,1.31,1.06s.47.99.49,1.58l-1.27.1c-.07-.63-.3-1.11-.69-1.44-.39-.32-.98-.49-1.75-.49s-1.39.15-1.75.44c-.37.29-.55.65-.55,1.06,0,.36.13.66.39.89.26.23.92.47,2,.71s1.82.46,2.22.64c.58.27,1.01.61,1.29,1.02.28.41.42.89.42,1.43s-.15,1.04-.46,1.51c-.31.47-.74.84-1.32,1.1-.57.26-1.22.39-1.93.39-.91,0-1.67-.13-2.28-.4-.61-.27-1.09-.66-1.44-1.19s-.53-1.13-.55-1.8Z"/>
      <path class="cls-85" d="M648.29,5040.3v-1.42h1.23v1.42h-1.23ZM648.29,5048.91v-7.26h1.23v7.26h-1.23Z"/>
      <path class="cls-85" d="M651.37,5048.91v-10.02h1.23v10.02h-1.23Z"/>
      <path class="cls-85" d="M656.53,5048.91l-2.76-7.26h1.3l1.56,4.35c.17.47.32.96.46,1.46.11-.38.26-.84.46-1.38l1.61-4.43h1.26l-2.75,7.26h-1.15Z"/>
      <path class="cls-85" d="M661.52,5040.3v-1.42h1.23v1.42h-1.23ZM661.52,5048.91v-7.26h1.23v7.26h-1.23Z"/>
      <path class="cls-85" d="M664.16,5045.28c0-1.35.37-2.34,1.12-2.99.62-.54,1.39-.81,2.28-.81,1,0,1.81.33,2.45.98.63.65.95,1.56.95,2.71,0,.94-.14,1.67-.42,2.21s-.69.95-1.22,1.25c-.54.29-1.12.44-1.75.44-1.02,0-1.84-.33-2.46-.98-.63-.65-.94-1.59-.94-2.82ZM665.43,5045.28c0,.93.2,1.62.61,2.09s.92.69,1.53.69,1.12-.23,1.52-.7.61-1.17.61-2.12c0-.9-.2-1.58-.61-2.04s-.92-.69-1.52-.69-1.13.23-1.53.69c-.41.46-.61,1.16-.61,2.09Z"/>
      <path class="cls-85" d="M683.6,5045.39l1.33.34c-.28,1.09-.78,1.92-1.5,2.49-.72.57-1.61.86-2.65.86s-1.96-.22-2.64-.66-1.19-1.08-1.54-1.91-.53-1.73-.53-2.69c0-1.04.2-1.95.6-2.73s.97-1.37,1.7-1.77c.74-.4,1.55-.6,2.43-.6,1,0,1.85.25,2.53.77.68.51,1.16,1.23,1.43,2.15l-1.31.31c-.23-.73-.57-1.26-1.01-1.59-.44-.33-1-.5-1.67-.5-.77,0-1.41.18-1.93.55s-.88.87-1.09,1.49c-.21.62-.31,1.26-.31,1.93,0,.85.12,1.6.37,2.23.25.64.63,1.11,1.16,1.43s1.09.47,1.7.47c.74,0,1.37-.21,1.89-.64.52-.43.86-1.06,1.05-1.91Z"/>
      <path class="cls-85" d="M691.14,5048.01c-.46.39-.89.66-1.32.82-.42.16-.87.24-1.36.24-.8,0-1.41-.2-1.84-.58-.43-.39-.64-.89-.64-1.49,0-.36.08-.68.24-.97.16-.29.37-.53.64-.71s.56-.31.89-.4c.24-.06.61-.12,1.09-.19.99-.12,1.73-.26,2.19-.42,0-.17,0-.28,0-.32,0-.5-.12-.86-.35-1.06-.31-.28-.78-.42-1.4-.42-.58,0-1.01.1-1.28.3-.28.2-.48.56-.61,1.08l-1.2-.16c.11-.52.29-.93.54-1.25s.61-.56,1.09-.73c.47-.17,1.02-.26,1.65-.26s1.12.07,1.51.22c.39.15.67.33.85.55s.31.5.38.84c.04.21.06.59.06,1.13v1.64c0,1.14.03,1.87.08,2.17s.16.59.31.87h-1.29c-.13-.25-.21-.55-.25-.89ZM691.04,5045.26c-.45.18-1.12.34-2.01.46-.51.07-.86.15-1.07.25-.21.09-.37.22-.49.4-.11.18-.17.37-.17.59,0,.33.12.6.37.82s.61.33,1.09.33.9-.1,1.26-.31c.37-.21.64-.49.81-.85.13-.28.2-.69.2-1.23v-.45Z"/>
      <path class="cls-85" d="M695.33,5048.91h-1.14v-10.02h1.23v3.58c.52-.65,1.18-.98,1.99-.98.45,0,.87.09,1.27.27.4.18.73.43.98.76s.46.72.6,1.18c.15.46.22.95.22,1.48,0,1.24-.31,2.21-.92,2.88-.62.68-1.35,1.02-2.21,1.02s-1.53-.36-2.02-1.07v.91ZM695.31,5045.22c0,.87.12,1.5.36,1.89.39.63.91.95,1.57.95.54,0,1-.23,1.39-.7.39-.47.59-1.16.59-2.09s-.19-1.65-.56-2.1-.83-.68-1.36-.68-1,.23-1.39.7-.59,1.14-.59,2.03Z"/>
      <path class="cls-85" d="M701.96,5048.91v-7.26h1.11v1.1c.28-.52.54-.86.78-1.02s.5-.25.79-.25c.41,0,.84.13,1.26.4l-.42,1.14c-.3-.18-.6-.27-.9-.27-.27,0-.51.08-.72.24-.21.16-.37.39-.46.67-.14.44-.21.92-.21,1.44v3.8h-1.23Z"/>
      <path class="cls-85" d="M711.38,5048.01c-.46.39-.89.66-1.32.82-.42.16-.87.24-1.36.24-.8,0-1.41-.2-1.84-.58-.43-.39-.64-.89-.64-1.49,0-.36.08-.68.24-.97.16-.29.37-.53.64-.71s.56-.31.89-.4c.24-.06.61-.12,1.09-.19.99-.12,1.73-.26,2.19-.42,0-.17,0-.28,0-.32,0-.5-.12-.86-.35-1.06-.31-.28-.78-.42-1.4-.42-.58,0-1.01.1-1.28.3-.28.2-.48.56-.61,1.08l-1.2-.16c.11-.52.29-.93.54-1.25s.61-.56,1.09-.73c.47-.17,1.02-.26,1.65-.26s1.12.07,1.51.22c.39.15.67.33.85.55s.31.5.38.84c.04.21.06.59.06,1.13v1.64c0,1.14.03,1.87.08,2.17s.16.59.31.87h-1.29c-.13-.25-.21-.55-.25-.89ZM711.27,5045.26c-.45.18-1.12.34-2.01.46-.51.07-.86.15-1.07.25-.21.09-.37.22-.49.4-.11.18-.17.37-.17.59,0,.33.12.6.37.82s.61.33,1.09.33.9-.1,1.26-.31c.37-.21.64-.49.81-.85.13-.28.2-.69.2-1.23v-.45Z"/>
      <path class="cls-85" d="M714.4,5048.91v-10.02h1.23v10.02h-1.23Z"/>
      <path class="cls-85" d="M721.13,5045.69l1.25-.11c.06.5.2.91.41,1.23.22.32.55.58,1.01.78.46.2.97.3,1.54.3.51,0,.95-.08,1.34-.23s.68-.36.86-.62c.19-.26.28-.55.28-.86s-.09-.59-.27-.82c-.18-.23-.48-.43-.9-.59-.27-.11-.86-.27-1.78-.49-.92-.22-1.57-.43-1.93-.62-.48-.25-.83-.56-1.07-.93-.24-.37-.35-.79-.35-1.25,0-.51.14-.98.43-1.42.29-.44.71-.77,1.26-1,.55-.23,1.16-.34,1.84-.34.74,0,1.4.12,1.97.36.57.24,1,.59,1.31,1.06s.47.99.49,1.58l-1.27.1c-.07-.63-.3-1.11-.69-1.44-.39-.32-.98-.49-1.75-.49s-1.39.15-1.75.44c-.37.29-.55.65-.55,1.06,0,.36.13.66.39.89.25.23.92.47,2,.71,1.08.24,1.82.46,2.22.64.58.27,1.01.61,1.29,1.02.28.41.42.89.42,1.43s-.15,1.04-.46,1.51c-.31.47-.74.84-1.32,1.1-.57.26-1.22.39-1.93.39-.91,0-1.67-.13-2.28-.4-.61-.27-1.09-.66-1.44-1.19-.35-.53-.53-1.13-.55-1.8Z"/>
      <path class="cls-85" d="M735.5,5048.01c-.46.39-.89.66-1.32.82-.42.16-.88.24-1.36.24-.8,0-1.41-.2-1.84-.58-.43-.39-.64-.89-.64-1.49,0-.36.08-.68.24-.97.16-.29.37-.53.63-.71.26-.18.56-.31.89-.4.24-.06.61-.12,1.09-.19.99-.12,1.73-.26,2.19-.42,0-.17,0-.28,0-.32,0-.5-.12-.86-.35-1.06-.31-.28-.78-.42-1.4-.42-.58,0-1.01.1-1.28.3-.28.2-.48.56-.61,1.08l-1.2-.16c.11-.52.29-.93.54-1.25s.61-.56,1.09-.73c.47-.17,1.02-.26,1.65-.26s1.12.07,1.51.22c.39.15.67.33.85.55s.31.5.38.84c.04.21.06.59.06,1.13v1.64c0,1.14.03,1.87.08,2.17.05.3.16.59.31.87h-1.29c-.13-.25-.21-.55-.25-.89ZM735.4,5045.26c-.45.18-1.12.34-2.01.46-.51.07-.86.15-1.07.25-.21.09-.37.22-.49.4-.11.18-.17.37-.17.59,0,.33.12.6.37.82.25.22.61.33,1.09.33s.9-.1,1.26-.31c.37-.21.64-.49.81-.85.13-.28.2-.69.2-1.23v-.45Z"/>
      <path class="cls-85" d="M738.55,5048.91v-7.26h1.11v1.03c.53-.8,1.3-1.2,2.31-1.2.44,0,.84.08,1.21.24.37.16.64.36.82.62.18.25.31.56.38.91.04.23.07.63.07,1.2v4.46h-1.23v-4.42c0-.5-.05-.88-.14-1.12-.1-.25-.27-.45-.51-.59-.24-.15-.53-.22-.86-.22-.52,0-.98.17-1.36.5-.38.33-.57.96-.57,1.89v3.96h-1.23Z"/>
      <path class="cls-85" d="M749.02,5047.81l.18,1.09c-.35.07-.66.11-.93.11-.45,0-.79-.07-1.04-.21-.25-.14-.42-.33-.52-.56-.1-.23-.15-.71-.15-1.45v-4.18h-.9v-.96h.9v-1.8l1.22-.74v2.54h1.24v.96h-1.24v4.25c0,.35.02.58.06.68.04.1.11.18.21.24.1.06.24.09.42.09.14,0,.32-.02.54-.05Z"/>
      <path class="cls-85" d="M754.96,5048.01c-.46.39-.89.66-1.32.82-.42.16-.87.24-1.36.24-.8,0-1.41-.2-1.84-.58-.43-.39-.64-.89-.64-1.49,0-.36.08-.68.24-.97.16-.29.37-.53.64-.71.26-.18.56-.31.88-.4.24-.06.61-.12,1.09-.19.99-.12,1.72-.26,2.19-.42,0-.17,0-.28,0-.32,0-.5-.12-.86-.35-1.06-.31-.28-.78-.42-1.4-.42-.58,0-1.01.1-1.28.3-.28.2-.48.56-.61,1.08l-1.2-.16c.11-.52.29-.93.54-1.25s.61-.56,1.09-.73c.47-.17,1.02-.26,1.65-.26s1.12.07,1.51.22c.39.15.67.33.85.55s.31.5.38.84c.04.21.06.59.06,1.13v1.64c0,1.14.03,1.87.08,2.17.05.3.16.59.31.87h-1.29c-.13-.25-.21-.55-.25-.89ZM754.86,5045.26c-.45.18-1.12.34-2.01.46-.51.07-.86.15-1.07.25-.21.09-.37.22-.49.4-.11.18-.17.37-.17.59,0,.33.12.6.37.82.25.22.61.33,1.09.33s.9-.1,1.26-.31c.37-.21.64-.49.81-.85.13-.28.2-.69.2-1.23v-.45Z"/>
      <path class="cls-85" d="M758.01,5048.91v-7.26h1.11v1.03c.53-.8,1.3-1.2,2.31-1.2.44,0,.84.08,1.21.24.37.16.64.36.82.62.18.25.31.56.38.91.05.23.07.63.07,1.2v4.46h-1.23v-4.42c0-.5-.05-.88-.14-1.12-.1-.25-.27-.45-.51-.59-.24-.15-.53-.22-.86-.22-.52,0-.98.17-1.36.5-.38.33-.57.96-.57,1.89v3.96h-1.23Z"/>
      <path class="cls-85" d="M770.54,5048.01c-.46.39-.89.66-1.32.82-.42.16-.87.24-1.36.24-.8,0-1.41-.2-1.84-.58-.43-.39-.64-.89-.64-1.49,0-.36.08-.68.24-.97.16-.29.37-.53.64-.71.26-.18.56-.31.88-.4.24-.06.61-.12,1.09-.19.99-.12,1.72-.26,2.19-.42,0-.17,0-.28,0-.32,0-.5-.12-.86-.35-1.06-.31-.28-.78-.42-1.4-.42-.58,0-1.01.1-1.28.3-.28.2-.48.56-.61,1.08l-1.2-.16c.11-.52.29-.93.54-1.25s.61-.56,1.09-.73c.47-.17,1.02-.26,1.65-.26s1.12.07,1.51.22c.39.15.67.33.85.55s.31.5.38.84c.04.21.06.59.06,1.13v1.64c0,1.14.03,1.87.08,2.17.05.3.16.59.31.87h-1.29c-.13-.25-.21-.55-.25-.89ZM770.43,5045.26c-.45.18-1.12.34-2.01.46-.51.07-.86.15-1.07.25-.21.09-.37.22-.49.4-.11.18-.17.37-.17.59,0,.33.12.6.37.82.25.22.61.33,1.09.33s.9-.1,1.26-.31c.37-.21.64-.49.81-.85.13-.28.2-.69.2-1.23v-.45Z"/>
      <path class="cls-85" d="M773.91,5048.91v-1.4h1.4v1.4c0,.52-.09.93-.27,1.25s-.47.56-.87.73l-.34-.53c.26-.12.45-.28.57-.5.12-.22.19-.54.21-.95h-.7Z"/>
      <path class="cls-85" d="M781.03,5046.26l1.23-.16c.14.7.38,1.2.72,1.51.34.31.75.46,1.24.46.58,0,1.07-.2,1.47-.6.4-.4.6-.9.6-1.49s-.18-1.03-.55-1.4-.84-.55-1.41-.55c-.23,0-.52.05-.87.14l.14-1.08c.08,0,.15.01.2.01.52,0,1-.14,1.42-.41s.63-.7.63-1.26c0-.45-.15-.83-.46-1.12-.31-.3-.7-.45-1.18-.45s-.88.15-1.2.45-.52.75-.62,1.35l-1.23-.22c.15-.82.49-1.46,1.03-1.92.53-.45,1.2-.68,1.99-.68.55,0,1.05.12,1.51.35.46.24.81.56,1.06.96.24.41.37.84.37,1.29,0,.43-.12.83-.35,1.18s-.58.64-1.03.85c.59.14,1.05.42,1.38.85.33.43.49.97.49,1.62,0,.88-.32,1.62-.96,2.22-.64.61-1.44.91-2.42.91-.88,0-1.61-.26-2.19-.79-.58-.53-.91-1.2-1-2.04Z"/>
      <path class="cls-85" d="M788.99,5046.59l1.18-.11c.1.55.29.96.57,1.21.28.25.65.38,1.09.38.38,0,.71-.09.99-.26.29-.17.52-.4.7-.7.18-.29.33-.68.46-1.17s.18-.99.18-1.5c0-.05,0-.14,0-.25-.25.39-.58.71-1.01.95-.43.24-.89.37-1.38.37-.83,0-1.53-.3-2.11-.9s-.86-1.39-.86-2.38.3-1.83.9-2.46c.6-.62,1.35-.93,2.25-.93.65,0,1.25.18,1.79.53.54.35.95.85,1.23,1.5.28.65.42,1.59.42,2.82s-.14,2.3-.42,3.06c-.28.76-.69,1.34-1.24,1.73-.55.4-1.19.6-1.93.6-.78,0-1.42-.22-1.92-.65-.5-.43-.8-1.05-.9-1.83ZM794.03,5042.17c0-.71-.19-1.27-.56-1.68-.38-.41-.83-.62-1.36-.62s-1.02.22-1.43.67c-.41.45-.61,1.03-.61,1.74,0,.64.19,1.16.58,1.55.38.4.86.6,1.42.6s1.04-.2,1.41-.6c.37-.4.55-.95.55-1.66Z"/>
      <path class="cls-85" d="M796.78,5046.59l1.18-.11c.1.55.29.96.57,1.21.28.25.64.38,1.09.38.38,0,.71-.09,1-.26.28-.17.52-.4.7-.7.18-.29.33-.68.46-1.17s.18-.99.18-1.5c0-.05,0-.14,0-.25-.25.39-.58.71-1.01.95-.43.24-.89.37-1.38.37-.83,0-1.53-.3-2.11-.9s-.86-1.39-.86-2.38.3-1.83.9-2.46c.6-.62,1.35-.93,2.25-.93.65,0,1.25.18,1.79.53.54.35.95.85,1.23,1.5.28.65.42,1.59.42,2.82s-.14,2.3-.42,3.06c-.28.76-.69,1.34-1.24,1.73-.55.4-1.19.6-1.93.6-.78,0-1.42-.22-1.92-.65-.5-.43-.79-1.05-.9-1.83ZM801.82,5042.17c0-.71-.19-1.27-.56-1.68-.38-.41-.83-.62-1.36-.62s-1.02.22-1.43.67c-.41.45-.61,1.03-.61,1.74,0,.64.19,1.16.58,1.55.39.4.86.6,1.43.6s1.04-.2,1.4-.6c.37-.4.55-.95.55-1.66Z"/>
      <path class="cls-85" d="M808.13,5045.9v-1.24h3.78v1.24h-3.78Z"/>
      <path class="cls-85" d="M817.27,5048.91v-10.02h1.33v8.84h4.94v1.18h-6.26Z"/>
      <path class="cls-85" d="M823.38,5051.72l.23-1.04c.25.06.44.1.58.1.25,0,.44-.08.56-.25s.18-.58.18-1.25v-7.63h1.23v7.66c0,.89-.12,1.52-.35,1.87-.3.46-.79.68-1.48.68-.33,0-.65-.04-.96-.13ZM824.94,5040.31v-1.43h1.23v1.43h-1.23Z"/>
      <path class="cls-85" d="M831.61,5043.96c0-1.19.12-2.14.37-2.86.24-.72.61-1.28,1.09-1.67.48-.39,1.09-.59,1.81-.59.54,0,1.01.11,1.42.32.41.22.74.53,1,.94s.47.9.62,1.49.23,1.38.23,2.37c0,1.18-.12,2.12-.36,2.85-.24.72-.6,1.28-1.08,1.68-.48.39-1.09.59-1.82.59-.97,0-1.72-.35-2.28-1.04-.66-.83-.99-2.19-.99-4.07ZM832.87,5043.96c0,1.64.19,2.74.58,3.28.39.54.86.82,1.43.82s1.04-.27,1.43-.82c.38-.55.58-1.64.58-3.28s-.19-2.75-.58-3.29c-.39-.54-.87-.81-1.44-.81s-1.02.24-1.35.72c-.42.61-.64,1.74-.64,3.38Z"/>
      <path class="cls-85" d="M839.4,5046.26l1.23-.16c.14.7.38,1.2.72,1.51.34.31.75.46,1.24.46.58,0,1.07-.2,1.47-.6.4-.4.6-.9.6-1.49s-.18-1.03-.55-1.4-.84-.55-1.41-.55c-.23,0-.52.05-.87.14l.14-1.08c.08,0,.15.01.2.01.52,0,1-.14,1.42-.41s.63-.7.63-1.26c0-.45-.15-.83-.46-1.12-.3-.3-.7-.45-1.18-.45s-.88.15-1.2.45-.52.75-.62,1.35l-1.23-.22c.15-.82.49-1.46,1.03-1.92.53-.45,1.2-.68,1.99-.68.55,0,1.05.12,1.51.35.46.24.81.56,1.06.96.24.41.37.84.37,1.29,0,.43-.12.83-.35,1.18s-.58.64-1.03.85c.59.14,1.05.42,1.38.85.33.43.49.97.49,1.62,0,.88-.32,1.62-.96,2.22-.64.61-1.45.91-2.42.91-.88,0-1.61-.26-2.19-.79-.58-.53-.91-1.2-.99-2.04Z"/>
      <path class="cls-85" d="M647.5,5065.71l3.85-10.02h1.43l4.1,10.02h-1.51l-1.17-3.04h-4.19l-1.1,3.04h-1.41ZM650.39,5061.59h3.4l-1.05-2.78c-.32-.84-.56-1.54-.71-2.08-.13.64-.31,1.28-.54,1.91l-1.1,2.94Z"/>
      <path class="cls-85" d="M657.77,5065.71v-7.26h1.11v1.1c.28-.51.54-.85.78-1.02s.5-.25.79-.25c.41,0,.84.13,1.26.4l-.42,1.14c-.3-.18-.6-.27-.9-.27-.27,0-.51.08-.72.24s-.37.39-.46.67c-.14.44-.21.92-.21,1.44v3.8h-1.23Z"/>
      <path class="cls-85" d="M667.2,5065.71v-1.07c-.56.82-1.33,1.23-2.3,1.23-.43,0-.83-.08-1.2-.25s-.65-.37-.83-.62-.31-.55-.38-.91c-.05-.24-.08-.62-.08-1.15v-4.5h1.23v4.03c0,.64.02,1.08.08,1.3.08.32.24.58.49.76.25.18.56.28.93.28s.72-.09,1.04-.28.55-.45.69-.77c.13-.33.2-.8.2-1.42v-3.89h1.23v7.26h-1.1Z"/>
      <path class="cls-85" d="M674.97,5064.81c-.46.39-.89.66-1.32.82-.42.16-.87.24-1.36.24-.8,0-1.41-.2-1.84-.58-.43-.39-.64-.89-.64-1.49,0-.36.08-.68.24-.97.16-.29.37-.53.64-.71s.56-.31.89-.4c.24-.06.61-.12,1.09-.18.99-.12,1.73-.26,2.19-.42,0-.17,0-.28,0-.32,0-.5-.12-.85-.35-1.06-.31-.28-.78-.42-1.4-.42-.58,0-1.01.1-1.28.3s-.48.56-.61,1.08l-1.2-.16c.11-.51.29-.93.54-1.25.25-.32.61-.56,1.09-.73.47-.17,1.02-.26,1.65-.26s1.12.07,1.51.22c.39.14.67.33.85.55.18.22.31.5.38.84.04.21.06.59.06,1.13v1.64c0,1.14.03,1.87.08,2.17.05.3.16.59.31.87h-1.29c-.13-.26-.21-.55-.25-.9ZM674.87,5062.06c-.45.18-1.12.34-2.01.46-.51.07-.86.16-1.07.25-.21.09-.37.22-.49.4s-.17.37-.17.58c0,.33.12.6.37.82s.61.33,1.09.33.9-.1,1.26-.31.64-.49.81-.85c.13-.28.2-.69.2-1.23v-.45Z"/>
      <path class="cls-85" d="M678.02,5065.71v-7.26h1.11v1.03c.53-.8,1.3-1.2,2.31-1.2.44,0,.84.08,1.21.24.37.16.64.36.82.62.18.26.31.56.38.91.05.23.07.63.07,1.2v4.46h-1.23v-4.42c0-.5-.05-.88-.14-1.12s-.27-.45-.51-.59c-.24-.15-.53-.22-.86-.22-.52,0-.98.17-1.36.5-.38.33-.57.96-.57,1.89v3.96h-1.23Z"/>
      <path class="cls-85" d="M690.54,5064.81c-.46.39-.89.66-1.32.82-.42.16-.87.24-1.36.24-.8,0-1.41-.2-1.84-.58-.43-.39-.64-.89-.64-1.49,0-.36.08-.68.24-.97.16-.29.37-.53.64-.71s.56-.31.89-.4c.24-.06.61-.12,1.09-.18.99-.12,1.73-.26,2.19-.42,0-.17,0-.28,0-.32,0-.5-.12-.85-.35-1.06-.31-.28-.78-.42-1.4-.42-.58,0-1.01.1-1.28.3s-.48.56-.61,1.08l-1.2-.16c.11-.51.29-.93.54-1.25.25-.32.61-.56,1.09-.73.47-.17,1.02-.26,1.65-.26s1.12.07,1.51.22c.39.14.67.33.85.55.18.22.31.5.38.84.04.21.06.59.06,1.13v1.64c0,1.14.03,1.87.08,2.17.05.3.16.59.31.87h-1.29c-.13-.26-.21-.55-.25-.9ZM690.44,5062.06c-.45.18-1.12.34-2.01.46-.51.07-.86.16-1.07.25-.21.09-.37.22-.49.4s-.17.37-.17.58c0,.33.12.6.37.82s.61.33,1.09.33.9-.1,1.26-.31.64-.49.81-.85c.13-.28.2-.69.2-1.23v-.45Z"/>
      <path class="cls-85" d="M697.3,5060.8c0-.48.17-.89.51-1.22.34-.34.75-.51,1.22-.51s.89.17,1.23.51c.34.34.51.75.51,1.22s-.17.89-.51,1.23-.75.51-1.23.51-.88-.17-1.22-.51-.51-.75-.51-1.23Z"/>
      <path class="cls-85" d="M704.55,5065.71l3.85-10.02h1.43l4.1,10.02h-1.51l-1.17-3.04h-4.19l-1.1,3.04h-1.41ZM707.45,5061.59h3.4l-1.05-2.78c-.32-.84-.56-1.54-.71-2.08-.13.64-.31,1.28-.54,1.91l-1.1,2.94Z"/>
      <path class="cls-85" d="M714.82,5065.71v-7.26h1.11v1.1c.28-.51.54-.85.78-1.02s.5-.25.79-.25c.41,0,.84.13,1.26.4l-.42,1.14c-.3-.18-.6-.27-.9-.27-.27,0-.51.08-.72.24s-.37.39-.46.67c-.14.44-.21.92-.21,1.44v3.8h-1.23Z"/>
      <path class="cls-85" d="M724.24,5064.81c-.46.39-.89.66-1.32.82-.42.16-.88.24-1.36.24-.8,0-1.41-.2-1.84-.58-.43-.39-.64-.89-.64-1.49,0-.36.08-.68.24-.97.16-.29.37-.53.64-.71s.56-.31.89-.4c.24-.06.61-.12,1.09-.18.99-.12,1.73-.26,2.19-.42,0-.17,0-.28,0-.32,0-.5-.12-.85-.35-1.06-.31-.28-.78-.42-1.4-.42-.58,0-1.01.1-1.28.3-.28.2-.48.56-.61,1.08l-1.2-.16c.11-.51.29-.93.54-1.25.25-.32.61-.56,1.09-.73.47-.17,1.02-.26,1.65-.26s1.12.07,1.51.22c.39.14.67.33.85.55.18.22.31.5.38.84.04.21.06.59.06,1.13v1.64c0,1.14.03,1.87.08,2.17.05.3.16.59.31.87h-1.29c-.13-.26-.21-.55-.25-.9ZM724.13,5062.06c-.45.18-1.12.34-2.01.46-.51.07-.86.16-1.07.25-.21.09-.37.22-.49.4s-.17.37-.17.58c0,.33.12.6.37.82s.61.33,1.09.33.9-.1,1.26-.31.64-.49.81-.85c.13-.28.2-.69.2-1.23v-.45Z"/>
      <path class="cls-85" d="M732.02,5063.05l1.21.16c-.13.83-.47,1.49-1.01,1.96-.54.47-1.21.71-2.01.71-.99,0-1.79-.32-2.4-.97-.6-.65-.91-1.58-.91-2.79,0-.78.13-1.47.39-2.06s.66-1.03,1.19-1.32c.53-.29,1.11-.44,1.73-.44.79,0,1.43.2,1.93.6s.82.96.96,1.7l-1.2.18c-.11-.49-.32-.85-.6-1.1-.29-.25-.64-.37-1.05-.37-.62,0-1.12.22-1.51.67-.39.45-.58,1.15-.58,2.11s.19,1.68.56,2.12c.37.44.86.66,1.46.66.48,0,.89-.15,1.21-.45.32-.29.53-.75.62-1.37Z"/>
      <path class="cls-85" d="M739.02,5064.81c-.46.39-.89.66-1.32.82-.42.16-.87.24-1.36.24-.8,0-1.41-.2-1.84-.58-.43-.39-.64-.89-.64-1.49,0-.36.08-.68.24-.97.16-.29.37-.53.64-.71.26-.18.56-.31.88-.4.24-.06.61-.12,1.09-.18.99-.12,1.72-.26,2.19-.42,0-.17,0-.28,0-.32,0-.5-.12-.85-.35-1.06-.31-.28-.78-.42-1.4-.42-.58,0-1.01.1-1.28.3-.28.2-.48.56-.61,1.08l-1.2-.16c.11-.51.29-.93.54-1.25.25-.32.61-.56,1.09-.73.47-.17,1.02-.26,1.65-.26s1.12.07,1.51.22c.39.14.67.33.85.55.18.22.31.5.38.84.04.21.06.59.06,1.13v1.64c0,1.14.03,1.87.08,2.17.05.3.16.59.31.87h-1.29c-.13-.26-.21-.55-.25-.9ZM738.92,5062.06c-.45.18-1.12.34-2.01.46-.51.07-.86.16-1.07.25-.21.09-.37.22-.49.4s-.17.37-.17.58c0,.33.12.6.37.82.25.22.61.33,1.09.33s.9-.1,1.26-.31.64-.49.81-.85c.13-.28.2-.69.2-1.23v-.45Z"/>
      <path class="cls-85" d="M740.5,5068.52l.23-1.05c.25.06.44.1.58.1.25,0,.44-.08.56-.25.12-.17.18-.58.18-1.25v-7.63h1.23v7.66c0,.89-.12,1.52-.35,1.87-.3.46-.79.68-1.48.68-.33,0-.65-.04-.96-.13ZM742.06,5057.11v-1.43h1.23v1.43h-1.23Z"/>
      <path class="cls-85" d="M749.94,5065.71v-1.07c-.57.82-1.33,1.23-2.3,1.23-.43,0-.83-.08-1.2-.25-.37-.16-.65-.37-.83-.62-.18-.25-.31-.55-.38-.91-.05-.24-.08-.62-.08-1.15v-4.5h1.23v4.03c0,.64.02,1.08.08,1.3.08.32.24.58.49.76.25.18.56.28.93.28s.71-.09,1.04-.28.55-.45.69-.77c.13-.33.2-.8.2-1.42v-3.89h1.23v7.26h-1.1Z"/>
      <path class="cls-85" d="M755.93,5062.58v-.99h14v.99h-14Z"/>
      <path class="cls-85" d="M774.45,5062.49l1.25-.11c.06.5.2.91.41,1.23.22.32.55.58,1.01.78.46.2.97.3,1.54.3.51,0,.95-.07,1.34-.22s.68-.36.86-.62c.19-.26.28-.55.28-.86s-.09-.59-.27-.82-.48-.43-.9-.59c-.27-.1-.86-.27-1.78-.49s-1.57-.43-1.93-.62c-.48-.25-.83-.56-1.07-.93-.24-.37-.35-.79-.35-1.25,0-.51.14-.98.43-1.42s.71-.77,1.26-1c.55-.23,1.16-.34,1.84-.34.74,0,1.4.12,1.97.36.57.24,1,.59,1.31,1.06s.47.99.49,1.58l-1.27.1c-.07-.63-.3-1.11-.69-1.44-.39-.32-.98-.48-1.75-.48s-1.39.15-1.75.44c-.37.29-.55.65-.55,1.06,0,.36.13.66.39.89.25.23.92.47,2,.71,1.08.24,1.82.46,2.22.64.58.27,1.01.61,1.29,1.02s.42.89.42,1.43-.15,1.04-.46,1.51c-.31.47-.74.84-1.32,1.1-.57.26-1.22.39-1.93.39-.91,0-1.67-.13-2.28-.4-.61-.26-1.09-.66-1.44-1.19-.35-.53-.53-1.13-.55-1.8Z"/>
      <path class="cls-85" d="M784.27,5065.71v-10.02h7.25v1.18h-5.92v3.07h5.54v1.18h-5.54v3.41h6.15v1.18h-7.48Z"/>
    </g>
    <text class="cls-16" transform="translate(1074.94 5057)"><tspan class="cls-83" x="0" y="0">Instagram • </tspan><tspan class="cls-85" x="74.93" y="0">WhatsApp </tspan><tspan class="cls-83" x="143.4" y="0">• Política de privacidade</tspan></text>
  </g>
  <g id="section-bottom">
    <rect class="cls-65" y="4773" width="1440" height="227"/>
    <g id="svg-bottomwave2">
      <path class="cls-41" d="M0,5000c310-110,480-120,720,0H0Z"/>
    </g>
    <text class="cls-39" transform="translate(92 4810.17)"><tspan class="cls-67" x="0" y="0">ONIX FIT PIL</tspan><tspan class="cls-84" x="106.18" y="0">A</tspan><tspan class="cls-67" x="116.89" y="0">TES</tspan></text>
    <text class="cls-18" transform="translate(116.46 4886.17)"><tspan x="0" y="0">Seu corpo em movimento. Seu treino em outro nível.</tspan></text>
    <path class="cls-59" d="M1184,4915.6h154c16.02,0,29,12.98,29,29h0c0,16.02-12.98,29-29,29h-154c-16.02,0-29-12.98-29-29h0c0-16.02,12.98-29,29-29Z"/>
    <text class="cls-11" transform="translate(1190.59 4951.6)"><tspan class="cls-74" x="0" y="0">COMEÇAR</tspan><tspan class="cls-10" x="79.29" y="0"> </tspan><tspan class="cls-89" x="83.65" y="0">AGOR</tspan><tspan class="cls-86" x="129.63" y="0">A</tspan></text>
  </g>
  <g id="section-booking-steps">
    <rect class="cls-66" y="4218" width="1440" height="555"/>
    <g id="booking-heading">
      <text class="cls-24" transform="translate(92 4312)"><tspan class="cls-67" x="0" y="0">COMO COMEÇAR SU</tspan><tspan class="cls-69" x="167.21" y="0">A</tspan><tspan class="cls-67" x="178.4" y="0" xml:space="preserve"> EVOLUÇÃO</tspan></text>
      <text class="cls-14" transform="translate(92 4394)"><tspan x="0" y="0">Três passos. Uma nova rotina.</tspan></text>
    </g>
    <text class="cls-20" transform="translate(320 4511.49)"><tspan x="0" y="0">1</tspan></text>
    <text class="cls-32" transform="translate(390 4498)"><tspan x="0" y="0">Adquira seu plano</tspan></text>
    <g class="cls-29">
      <text class="cls-13" transform="translate(390 4531.78)"><tspan x="0" y="0">Conheça nossos planos e opções</tspan></text>
      <text class="cls-51" transform="translate(614.14 4531.78)"><tspan x="0" y="0"> </tspan></text>
      <text class="cls-13" transform="translate(390 4553.78)"><tspan x="0" y="0">de horários disponíveis.</tspan></text>
    </g>
    <g id="step-2">
      <g id="svg-icon_diahora">
        <circle class="cls-52" cx="216" cy="4650" r="62"/>
        <rect class="cls-8" x="183" y="4622" width="66" height="56" rx="7" ry="7"/>
        <line class="cls-8" x1="183" y1="4642" x2="249" y2="4642"/>
        <line class="cls-8" x1="197" y1="4613" x2="197" y2="4631"/>
        <line class="cls-8" x1="235" y1="4613" x2="235" y2="4631"/>
      </g>
      <text class="cls-20" transform="translate(320 4650)"><tspan x="0" y="0">2</tspan></text>
      <text class="cls-32" transform="translate(390 4630)"><tspan x="0" y="0">Defina dia e horário</tspan></text>
      <g class="cls-29">
        <text class="cls-13" transform="translate(390 4674)"><tspan x="0" y="0">Reserve a aula que melhor se encaixa</tspan></text>
        <text class="cls-51" transform="translate(628.92 4674)"><tspan x="0" y="0"> </tspan></text>
        <text class="cls-13" transform="translate(390 4696)"><tspan x="0" y="0">na sua semana.</tspan></text>
      </g>
    </g>
    <g id="step-3">
      <text class="cls-20" transform="translate(950 4546.51)"><tspan x="0" y="0">3</tspan></text>
      <text class="cls-32" transform="translate(1020 4531.2)"><tspan class="cls-76" x="0" y="0">V</tspan><tspan x="17.52" y="0">iva a experiência</tspan></text>
      <g class="cls-29">
        <text class="cls-13" transform="translate(1020 4575.2)"><tspan class="cls-70" x="0" y="0">A</tspan><tspan x="8.57" y="0" xml:space="preserve"> equipe orienta molas, ajustes e execução.</tspan></text>
        <text class="cls-51" transform="translate(1293.95 4575.2)"><tspan x="0" y="0"> </tspan></text>
        <text class="cls-13" transform="translate(1020 4597.2)"><tspan class="cls-70" x="0" y="0">V</tspan><tspan x="8.57" y="0">ocê só precisa começa</tspan><tspan class="cls-70" x="151.74" y="0">r</tspan><tspan x="155.63" y="0">.</tspan></text>
      </g>
      <path class="cls-59" d="M1052.87,4640.2h206.99c18.16,0,32.87,12.09,32.87,27h0c0,14.91-14.72,27-32.87,27h-206.99c-18.16,0-32.87-12.09-32.87-27h0c0-14.91,14.72-27,32.87-27Z"/>
      <text class="cls-11" transform="translate(1050.67 4674.2)"><tspan class="cls-74" x="0" y="0">RESE</tspan><tspan class="cls-9" x="42.1" y="0">R</tspan><tspan class="cls-79" x="52.95" y="0">V</tspan><tspan class="cls-74" x="62.24" y="0">AR PRIMEIR</tspan><tspan class="cls-10" x="154.63" y="0">A </tspan><tspan class="cls-74" x="169.58" y="0">AUL</tspan><tspan class="cls-10" x="201.34" y="0">A</tspan></text>
      <g id="svg-icon_vivaexp">
        <circle class="cls-52" cx="850" cy="4552.2" r="62"/>
        <g>
          <path class="cls-8" d="M850,4505.2c-22,0-36,16-36,35,0,27,36,59,36,59,0,0,36-32,36-59,0-19-14-35-36-35Z"/>
          <circle class="cls-65" cx="850" cy="4542.3" r="9"/>
        </g>
      </g>
    </g>
    <g id="svg-icon_adquira">
      <circle class="cls-52" cx="216" cy="4504.7" r="62"/>
      <g>
        <rect class="cls-8" x="186" y="4471.7" width="60" height="66" rx="8" ry="8"/>
        <line class="cls-8" x1="201" y1="4489.7" x2="231" y2="4489.7"/>
        <line class="cls-8" x1="201" y1="4506.7" x2="231" y2="4506.7"/>
        <line class="cls-8" x1="201" y1="4523.7" x2="222" y2="4523.7"/>
      </g>
    </g>
  </g>
  <g id="section-class-formats">
    <rect class="cls-52" y="3488" width="1440" height="730"/>
    <text class="cls-24" transform="translate(632.3 3595)"><tspan class="cls-67" x="0" y="0">SEMAN</tspan><tspan class="cls-69" x="58.39" y="0">A</tspan><tspan class="cls-67" x="69.58" y="0" xml:space="preserve"> FIT PIL</tspan><tspan class="cls-78" x="134.83" y="0">A</tspan><tspan class="cls-67" x="145.54" y="0">TES</tspan></text>
    <text class="cls-14" transform="translate(335.33 3670)"><tspan x="0" y="0">Treinos com identidade própria.</tspan></text>
    <text class="cls-38" transform="translate(488.36 3725)"><tspan x="0" y="0">Cada proposta muda o foco, o ritmo e a dinâmica da aula.</tspan></text>
    <g id="class-card-leg-wrap">
      <rect class="cls-66" x="72" y="3805" width="300" height="300" rx="32" ry="32"/>
      <text class="cls-31" transform="translate(112 3888)"><tspan x="0" y="0">01</tspan></text>
      <text class="cls-32" transform="translate(112 3955)"><tspan x="0" y="0">LEG WRA</tspan><tspan class="cls-76" x="127.49" y="0">P</tspan></text>
      <g class="cls-29">
        <text class="cls-13" transform="translate(112 4008)"><tspan x="0" y="0">Pernas e glúteos em sequências</tspan></text>
        <text class="cls-51" transform="translate(315.12 4008)"><tspan x="0" y="0"> </tspan></text>
        <text class="cls-13" transform="translate(112 4030)"><tspan x="0" y="0">de força, estabilidade e controle.</tspan></text>
      </g>
      <line class="cls-4" x1="112" y1="4072" x2="330" y2="4072"/>
    </g>
    <g id="class-card-upper-rise">
      <rect class="cls-59" x="396" y="3805" width="300" height="300" rx="32" ry="32"/>
      <text class="cls-21" transform="translate(436 3888)"><tspan x="0" y="0">02</tspan></text>
      <text class="cls-23" transform="translate(436 3955)"><tspan x="0" y="0">UPPER RISE</tspan></text>
      <g class="cls-29">
        <text class="cls-30" transform="translate(436 4008)"><tspan x="0" y="0">Braços, costas e postura com</tspan></text>
        <text class="cls-50" transform="translate(620.41 4008)"><tspan x="0" y="0"> </tspan></text>
        <text class="cls-30" transform="translate(436 4030)"><tspan x="0" y="0">movimentos integrados e precisos.</tspan></text>
      </g>
      <line class="cls-1" x1="436" y1="4072" x2="654" y2="4072"/>
    </g>
    <g id="class-card-core-sculpt">
      <rect class="cls-65" x="720" y="3805" width="300" height="300" rx="32" ry="32"/>
      <text class="cls-43" transform="translate(760 3888)"><tspan x="0" y="0">03</tspan></text>
      <text class="cls-23" transform="translate(760 3955)"><tspan x="0" y="0">CORE SCULPT</tspan></text>
      <g class="cls-29">
        <text class="cls-36" transform="translate(760 4008)"><tspan x="0" y="0">Centro do corpo, rotação, equilíbrio</tspan></text>
        <text class="cls-49" transform="translate(979.46 4008)"><tspan x="0" y="0"> </tspan></text>
        <text class="cls-36" transform="translate(760 4030)"><tspan x="0" y="0">e sustentação em diferentes planos.</tspan></text>
      </g>
      <line class="cls-2" x1="760" y1="4072" x2="978" y2="4072"/>
    </g>
    <g id="class-card-full-balance">
      <rect class="cls-68" x="1044" y="3805" width="300" height="300" rx="32" ry="32"/>
      <text class="cls-20" transform="translate(1084 3888)"><tspan x="0" y="0">04</tspan></text>
      <text class="cls-32" transform="translate(1084 3955)"><tspan x="0" y="0">FUL</tspan><tspan class="cls-76" x="52.48" y="0">L</tspan><tspan x="68.49" y="0" xml:space="preserve"> BALANCE</tspan></text>
      <g class="cls-29">
        <text class="cls-13" transform="translate(1084 4008)"><tspan x="0" y="0">Corpo inteiro em um treino global,</tspan></text>
        <text class="cls-51" transform="translate(1294.88 4008)"><tspan x="0" y="0"> </tspan></text>
        <text class="cls-13" transform="translate(1084 4030)"><tspan x="0" y="0">dinâmico, intenso e completo.</tspan></text>
      </g>
      <line class="cls-3" x1="1084" y1="4072" x2="1302" y2="4072"/>
    </g>
  </g>
  <g id="section-reformer">
    <rect class="cls-62" y="2798" width="1440" height="690"/>
    <g id="svg-bottomcircle">
      <path class="cls-19" d="M1440,3162.12c-35.3-20.42-76.28-32.12-120-32.12-132.55,0-240,107.45-240,240,0,42.89,11.27,83.15,30.98,118h329.02v-325.88Z"/>
    </g>
    <g id="reformer-copy">
      <text class="cls-39" transform="translate(792 2912)"><tspan class="cls-67" x="0" y="0">TECNOLOGI</tspan><tspan class="cls-69" x="97.87" y="0">A</tspan><tspan class="cls-67" x="109.06" y="0" xml:space="preserve"> +</tspan><tspan class="cls-69" x="124.84" y="0"> </tspan><tspan class="cls-67" x="130.26" y="0">AU</tspan><tspan class="cls-77" x="153.61" y="0">T</tspan><tspan class="cls-67" x="163.61" y="0">ONOMI</tspan><tspan class="cls-69" x="219.1" y="0">A</tspan></text>
      <g class="cls-29">
        <text class="cls-40" transform="translate(791.84 2998.26)"><tspan x="0" y="0">O Reformer como</tspan></text>
        <text class="cls-54" transform="translate(1200.75 2998.26)"><tspan x="0" y="0"> </tspan></text>
        <text class="cls-45" transform="translate(791.84 3055.97)"><tspan x="0" y="0">plataforma de evolução.</tspan></text>
      </g>
      <g class="cls-29">
        <text class="cls-37" transform="translate(794 3170)"><tspan x="0" y="0">Molas, carrinho, alças e barra criam infinitas possibilidades.</tspan></text>
        <text class="cls-56" transform="translate(1269.21 3170)"><tspan x="0" y="0"> </tspan></text>
        <text class="cls-37" transform="translate(794 3199)"><tspan class="cls-70" x="0" y="0">A</tspan><tspan x="11.01" y="0" xml:space="preserve"> resistência se adapta ao exercício e permite desenvolver</tspan></text>
        <text class="cls-56" transform="translate(1264.26 3199)"><tspan x="0" y="0"> </tspan></text>
        <text class="cls-37" transform="translate(794 3228)"><tspan x="0" y="0">controle, potência, amplitude e precisão.</tspan></text>
        <text class="cls-56" transform="translate(1117.19 3228)"><tspan x="0" y="0"> </tspan></text>
        <text class="cls-37" transform="translate(794 3270)"><tspan x="0" y="0">Com orientação próxima, cada aluno encontra o desafio certo</tspan></text>
        <text class="cls-56" transform="translate(1286.28 3270)"><tspan x="0" y="0"> </tspan></text>
        <text class="cls-37" transform="translate(794 3299)"><tspan x="0" y="0">para o seu momento — sem tornar o treino previsível.</tspan></text>
      </g>
    </g>
    <g id="img-reformer">
      <g class="cls-88">
        <image width="1365" height="2048" transform="translate(92.67 2516.1) scale(.45)" xlink:href="../../../../My Drive/{ Instituto }/FitPilates/Site/Fotos/NataliaEspelhoLoop.jpg"/>
      </g>
    </g>
  </g>
  <g id="section-fullbody">
    <rect class="cls-66" y="2148" width="1440" height="650"/>
    <g id="svg-topcircle">
      <path class="cls-22" d="M0,2148h470c70,182,10,447-470,552v-552Z"/>
    </g>
    <g id="body-copy">
      <text class="cls-48" transform="translate(92 2275.56)"><tspan x="0" y="0">CORPO INTEIRO</tspan></text>
      <g class="cls-29">
        <text class="cls-35" transform="translate(92 2354.43)"><tspan x="0" y="0">Força, mobilidade</tspan></text>
        <text class="cls-60" transform="translate(466.26 2354.43)"><tspan x="0" y="0"> </tspan></text>
        <text class="cls-35" transform="translate(92 2406.39)"><tspan x="0" y="0">e equilíbrio na mesma aula.</tspan></text>
      </g>
      <g class="cls-29">
        <text class="cls-38" transform="translate(94 2530.56)"><tspan x="0" y="0">As sequências integram membros superiores, inferiores e centro</tspan></text>
        <text class="cls-57" transform="translate(609.23 2530.56)"><tspan x="0" y="0"> </tspan></text>
        <text class="cls-38" transform="translate(94 2559.56)"><tspan x="0" y="0">do corpo em movimentos completos, funcionais e desafiadores.</tspan></text>
        <text class="cls-57" transform="translate(602.26 2559.56)"><tspan x="0" y="0"> </tspan></text>
        <text class="cls-38" transform="translate(94 2601.56)"><tspan x="0" y="0">O objetivo não é apenas repetir: é evoluir a execução, ampliar</tspan></text>
        <text class="cls-57" transform="translate(589.29 2601.56)"><tspan x="0" y="0"> </tspan></text>
        <text class="cls-38" transform="translate(94 2630.56)"><tspan x="0" y="0">a consciência corporal e construir consistência.</tspan></text>
      </g>
    </g>
    <g id="img-estudio">
      <g class="cls-71">
        <image width="2048" height="1365" transform="translate(641.33 2202.59) scale(.37)" xlink:href="../../../../My Drive/{ Instituto }/FitPilates/Site/Fotos/StudioPanorama.jpg"/>
      </g>
    </g>
  </g>
  <g id="section-rhythm">
    <rect class="cls-52" y="1378" width="1440" height="770"/>
    <g id="rhythm-copy">
      <text class="cls-48" transform="translate(792 1538)"><tspan x="0" y="0">RITMO + CONTROLE</tspan></text>
      <g class="cls-29">
        <text class="cls-14" transform="translate(792 1628)"><tspan x="0" y="0">Movimento com</tspan></text>
        <text class="cls-58" transform="translate(1181.36 1628)"><tspan x="0" y="0"> </tspan></text>
        <text class="cls-34" transform="translate(792 1688)"><tspan x="0" y="0">intenção e energia.</tspan></text>
      </g>
      <g class="cls-29">
        <text class="cls-38" transform="translate(794 1795)"><tspan class="cls-70" x="0" y="0">A</tspan><tspan x="11.01" y="0" xml:space="preserve"> aula é conduzida em sequências fluidas, com transições</tspan></text>
        <text class="cls-57" transform="translate(1221.24 1795)"><tspan x="0" y="0"> </tspan></text>
        <text class="cls-38" transform="translate(794 1824)"><tspan x="0" y="0">planejadas para manter o corpo ativo e a mente presente.</tspan></text>
        <text class="cls-57" transform="translate(1256.29 1824)"><tspan x="0" y="0"> </tspan></text>
        <text class="cls-38" transform="translate(794 1866)"><tspan class="cls-70" x="0" y="0">V</tspan><tspan x="11.01" y="0">ocê trabalha força, resistência, coordenação e estabilidade</tspan></text>
        <text class="cls-57" transform="translate(1275.31 1866)"><tspan x="0" y="0"> </tspan></text>
        <text class="cls-38" transform="translate(794 1895)"><tspan x="0" y="0">sem perder a qualidade do movimento.</tspan></text>
      </g>
      <g id="svg-rhythm-tags">
        <path class="cls-66" d="M811,1940h80c10.49,0,19,8.51,19,19h0c0,10.49-8.51,19-19,19h-80c-10.49,0-19-8.51-19-19h0c0-10.49,8.51-19,19-19Z"/>
        <text class="cls-12" transform="translate(835.44 1965)"><tspan x="0" y="0">força</tspan></text>
        <path class="cls-66" d="M941,1940h108c10.49,0,19,8.51,19,19h0c0,10.49-8.51,19-19,19h-108c-10.49,0-19-8.51-19-19h0c0-10.49,8.51-19,19-19Z"/>
        <text class="cls-12" transform="translate(961.15 1965)"><tspan x="0" y="0">mobilidade</tspan></text>
        <path class="cls-66" d="M1099,1940h115c10.49,0,19,8.51,19,19h0c0,10.49-8.51,19-19,19h-115c-10.49,0-19-8.51-19-19h0c0-10.49,8.51-19,19-19Z"/>
        <text class="cls-12" transform="translate(1119.14 1965)"><tspan x="0" y="0">estabilidade</tspan></text>
      </g>
    </g>
    <g id="img-movimento">
      <g class="cls-81">
        <image width="1365" height="2048" transform="translate(92 1329.31) scale(.45)" xlink:href="../../../../My Drive/{ Instituto }/FitPilates/Site/Fotos/ExercicioIntenso.jpg"/>
      </g>
    </g>
  </g>
  <g id="section-method">
    <rect class="cls-59" y="948" width="1440" height="430"/>
    <g id="method-intro-copy">
      <text class="cls-26" transform="translate(92 1020.87)"><tspan x="0" y="0">NOSSO TREINO</tspan></text>
      <g class="cls-29">
        <text class="cls-47" transform="translate(92 1090.87)"><tspan x="0" y="0">Um momento só seu.</tspan></text>
        <text class="cls-53" transform="translate(500.03 1094.87)"><tspan x="0" y="0"> </tspan></text>
        <text class="cls-47" transform="translate(92 1145.61)"><tspan x="0" y="0">Seu corpo em outra</tspan><tspan x="0" y="59.12">frequência.</tspan></text>
      </g>
      <g class="cls-29">
        <text class="cls-25" transform="translate(94 1259.54)"><tspan x="0" y="0">Cada aula combina sequência, intensidade e controle.</tspan></text>
        <text class="cls-55" transform="translate(527.29 1259.54)"><tspan x="0" y="0"> </tspan></text>
        <text class="cls-25" transform="translate(94 1288.54)"><tspan x="0" y="0">O ritmo é contínuo; a execução, consciente; </tspan></text>
        <text class="cls-25" transform="translate(94.86 1317.27)"><tspan x="0" y="0">O resultado, duradouro e visível.</tspan></text>
      </g>
    </g>
    <g id="method-metrics">
      <g id="svg-vertline">
        <line class="cls-7" x1="830.33" y1="1034" x2="830.33" y2="1284"/>
      </g>
      <g id="svg-vertline-2" data-name="svg-vertline">
        <line class="cls-7" x1="1093.95" y1="1034" x2="1093.95" y2="1284"/>
      </g>
      <text class="cls-31" transform="translate(680.03 1140)"><tspan x="0" y="0">50</tspan></text>
      <g class="cls-29">
        <path class="cls-52" d="M684.23,1182v-9.31h2.81l1.69,6.35,1.67-6.35h2.82v9.31h-1.75v-7.33l-1.85,7.33h-1.81l-1.84-7.33v7.33h-1.75Z"/>
        <path class="cls-52" d="M697.32,1182v-9.31h1.88v9.31h-1.88Z"/>
        <path class="cls-52" d="M703.29,1182v-9.31h1.83l3.81,6.21v-6.21h1.75v9.31h-1.89l-3.75-6.07v6.07h-1.75Z"/>
        <path class="cls-52" d="M714.94,1172.69h1.88v5.04c0,.8.02,1.32.07,1.55.08.38.27.69.57.92.3.23.72.35,1.24.35s.94-.11,1.21-.33.43-.49.49-.8.08-.84.08-1.58v-5.15h1.88v4.89c0,1.12-.05,1.91-.15,2.37-.1.46-.29.85-.56,1.17-.27.32-.64.57-1.1.76-.46.19-1.05.28-1.79.28-.89,0-1.56-.1-2.02-.31-.46-.21-.82-.47-1.09-.8s-.44-.67-.53-1.03c-.12-.53-.18-1.32-.18-2.36v-4.96Z"/>
        <path class="cls-52" d="M728.72,1182v-7.73h-2.76v-1.57h7.39v1.57h-2.75v7.73h-1.88Z"/>
        <path class="cls-52" d="M736.24,1177.4c0-.95.14-1.74.43-2.39.21-.47.5-.9.87-1.28.37-.38.77-.66,1.2-.84.58-.25,1.25-.37,2.01-.37,1.37,0,2.47.43,3.29,1.28.82.85,1.24,2.03,1.24,3.55s-.41,2.68-1.23,3.53c-.82.85-1.91,1.27-3.28,1.27s-2.48-.42-3.3-1.27c-.82-.84-1.22-2.01-1.22-3.49ZM738.17,1177.34c0,1.05.24,1.85.73,2.4s1.1.82,1.85.82,1.36-.27,1.84-.81c.48-.54.72-1.35.72-2.43s-.23-1.86-.7-2.39c-.47-.52-1.09-.79-1.86-.79s-1.4.27-1.87.8c-.47.53-.71,1.33-.71,2.4Z"/>
        <path class="cls-52" d="M748.54,1178.97l1.83-.18c.11.61.33,1.06.67,1.35.34.29.79.43,1.36.43.61,0,1.06-.13,1.37-.38.31-.26.46-.56.46-.9,0-.22-.06-.41-.19-.56s-.35-.29-.68-.4c-.22-.08-.72-.21-1.5-.41-1.01-.25-1.71-.56-2.12-.92-.57-.51-.86-1.14-.86-1.87,0-.47.13-.92.4-1.33.27-.41.66-.73,1.16-.94.5-.22,1.12-.32,1.83-.32,1.17,0,2.05.26,2.64.77.59.51.9,1.2.93,2.05l-1.88.08c-.08-.48-.25-.82-.52-1.03-.26-.21-.66-.31-1.19-.31s-.97.11-1.28.34c-.2.14-.3.34-.3.58,0,.22.09.41.28.57.24.2.81.41,1.73.62.91.22,1.59.44,2.03.67.44.23.78.55,1.03.95.25.4.37.89.37,1.48,0,.53-.15,1.03-.44,1.5-.3.47-.72.81-1.26,1.04s-1.22.34-2.03.34c-1.18,0-2.08-.27-2.71-.82s-1.01-1.34-1.13-2.38Z"/>
        <path class="cls-52" d="M679.26,1197.6v-9.31h3.02c1.14,0,1.89.05,2.23.14.53.14.98.44,1.34.91s.54,1.07.54,1.81c0,.57-.1,1.05-.31,1.44s-.47.7-.79.92c-.32.22-.64.37-.97.44-.45.09-1.1.13-1.95.13h-1.23v3.51h-1.88ZM681.14,1189.87v2.64h1.03c.74,0,1.24-.05,1.49-.15.25-.1.45-.25.59-.46.14-.21.21-.45.21-.72,0-.34-.1-.62-.3-.84-.2-.22-.45-.36-.76-.41-.22-.04-.67-.06-1.35-.06h-.91Z"/>
        <path class="cls-52" d="M689.84,1193c0-.95.14-1.74.43-2.39.21-.47.5-.9.87-1.28.37-.38.77-.66,1.2-.84.58-.25,1.25-.37,2.01-.37,1.37,0,2.47.43,3.29,1.28.82.85,1.23,2.03,1.23,3.55s-.41,2.68-1.23,3.53-1.91,1.27-3.28,1.27-2.48-.42-3.3-1.27c-.82-.84-1.23-2.01-1.23-3.49ZM691.78,1192.94c0,1.05.24,1.85.73,2.4s1.1.82,1.85.82,1.36-.27,1.84-.81c.48-.54.72-1.35.72-2.43s-.23-1.86-.7-2.39c-.47-.52-1.09-.79-1.86-.79s-1.4.27-1.87.8-.71,1.33-.71,2.4Z"/>
        <path class="cls-52" d="M702.63,1197.6v-9.31h3.95c.99,0,1.72.08,2.17.25.45.17.81.46,1.08.89s.41.92.41,1.47c0,.7-.21,1.28-.62,1.73s-1.02.74-1.84.86c.41.24.74.5,1.01.78.26.28.62.79,1.07,1.51l1.14,1.82h-2.25l-1.36-2.03c-.48-.72-.81-1.18-.99-1.37s-.37-.32-.56-.39c-.2-.07-.51-.1-.95-.1h-.38v3.88h-1.88ZM704.51,1192.23h1.39c.9,0,1.46-.04,1.69-.11s.4-.21.53-.39.19-.42.19-.7c0-.31-.08-.57-.25-.76-.17-.19-.4-.31-.71-.36-.15-.02-.61-.03-1.37-.03h-1.47v2.36Z"/>
        <path class="cls-52" d="M728.11,1197.6h-2.04l-.81-2.11h-3.72l-.77,2.11h-1.99l3.62-9.31h1.99l3.73,9.31ZM724.65,1193.92l-1.28-3.45-1.26,3.45h2.54Z"/>
        <path class="cls-52" d="M731.38,1188.29h1.88v5.04c0,.8.02,1.32.07,1.55.08.38.27.69.57.92s.72.35,1.24.35.93-.11,1.21-.33.43-.49.49-.8c.06-.32.08-.84.08-1.58v-5.15h1.88v4.89c0,1.12-.05,1.91-.15,2.37-.1.46-.29.85-.56,1.17-.27.32-.64.57-1.1.76s-1.05.28-1.79.28c-.89,0-1.56-.1-2.02-.31-.46-.21-.82-.47-1.09-.8-.27-.33-.44-.67-.53-1.03-.12-.53-.18-1.32-.18-2.36v-4.96Z"/>
        <path class="cls-52" d="M743.12,1197.6v-9.23h1.88v7.66h4.67v1.57h-6.55Z"/>
        <path class="cls-52" d="M761.69,1197.6h-2.04l-.81-2.11h-3.72l-.77,2.11h-1.99l3.62-9.31h1.99l3.73,9.31ZM758.23,1193.92l-1.28-3.45-1.26,3.45h2.54Z"/>
      </g>
      <text class="cls-31" transform="translate(920.78 1140)"><tspan x="0" y="0">60</tspan></text>
      <g class="cls-29">
        <path class="cls-52" d="M893.91,1178.97l1.83-.18c.11.61.33,1.06.67,1.35.34.29.79.43,1.36.43.61,0,1.06-.13,1.37-.38.31-.26.46-.56.46-.9,0-.22-.06-.41-.19-.56s-.35-.29-.68-.4c-.22-.08-.72-.21-1.5-.41-1.01-.25-1.71-.56-2.12-.92-.57-.51-.86-1.14-.86-1.87,0-.47.13-.92.4-1.33.27-.41.66-.73,1.16-.94.5-.22,1.12-.32,1.83-.32,1.17,0,2.05.26,2.64.77.59.51.9,1.2.93,2.05l-1.88.08c-.08-.48-.25-.82-.52-1.03-.26-.21-.66-.31-1.19-.31s-.97.11-1.28.34c-.2.14-.3.34-.3.58,0,.22.09.41.28.57.24.2.81.41,1.73.62.91.22,1.59.44,2.03.67.44.23.78.55,1.03.95.25.4.37.89.37,1.48,0,.53-.15,1.03-.44,1.5-.3.47-.72.81-1.26,1.04s-1.22.34-2.03.34c-1.18,0-2.08-.27-2.71-.82s-1.01-1.34-1.13-2.38Z"/>
        <path class="cls-52" d="M905.35,1182v-9.31h6.9v1.57h-5.02v2.06h4.67v1.57h-4.67v2.53h5.2v1.57h-7.08Z"/>
        <path class="cls-52" d="M920.63,1178.58v-1.57h4.05v3.71c-.39.38-.96.72-1.71,1.01-.75.29-1.5.43-2.27.43-.97,0-1.82-.2-2.54-.61-.72-.41-1.27-.99-1.63-1.75s-.55-1.59-.55-2.48c0-.97.2-1.83.61-2.58.41-.75,1-1.33,1.78-1.73.6-.31,1.34-.46,2.23-.46,1.16,0,2.06.24,2.71.73.65.48,1.07,1.15,1.25,2.01l-1.87.35c-.13-.46-.38-.82-.74-1.08-.36-.26-.81-.4-1.36-.4-.82,0-1.47.26-1.96.78-.49.52-.73,1.29-.73,2.32,0,1.1.25,1.93.74,2.49.49.55,1.13.83,1.93.83.39,0,.79-.08,1.18-.23s.74-.34,1.02-.56v-1.18h-2.15Z"/>
        <path class="cls-52" d="M928.69,1172.69h1.88v5.04c0,.8.02,1.32.07,1.55.08.38.27.69.57.92.3.23.72.35,1.24.35s.94-.11,1.21-.33.43-.49.49-.8c.05-.32.08-.84.08-1.58v-5.15h1.88v4.89c0,1.12-.05,1.91-.15,2.37-.1.46-.29.85-.56,1.17-.27.32-.64.57-1.09.76s-1.05.28-1.79.28c-.89,0-1.56-.1-2.02-.31s-.82-.47-1.09-.8c-.27-.33-.44-.67-.53-1.03-.12-.53-.18-1.32-.18-2.36v-4.96Z"/>
        <path class="cls-52" d="M940.4,1182v-9.31h1.83l3.81,6.21v-6.21h1.75v9.31h-1.88l-3.75-6.07v6.07h-1.75Z"/>
        <path class="cls-52" d="M952.05,1172.69h3.43c.77,0,1.36.06,1.77.18.55.16,1.01.45,1.4.86.39.41.69.91.89,1.51s.3,1.33.3,2.2c0,.77-.1,1.43-.29,1.98-.23.68-.57,1.23-1,1.64-.33.32-.77.56-1.32.74-.41.13-.97.2-1.66.2h-3.54v-9.31ZM953.93,1174.27v6.16h1.4c.52,0,.9-.03,1.14-.09.3-.08.56-.21.76-.39s.37-.48.49-.9.19-.98.19-1.7-.06-1.27-.19-1.66c-.13-.39-.3-.69-.53-.9-.23-.21-.52-.36-.87-.44-.26-.06-.78-.09-1.54-.09h-.84Z"/>
        <path class="cls-52" d="M963.35,1177.4c0-.95.14-1.74.43-2.39.21-.47.5-.9.87-1.28.37-.38.77-.66,1.2-.84.58-.25,1.25-.37,2.01-.37,1.37,0,2.47.43,3.29,1.28.82.85,1.24,2.03,1.24,3.55s-.41,2.68-1.23,3.53c-.82.85-1.91,1.27-3.28,1.27s-2.48-.42-3.3-1.27c-.82-.84-1.22-2.01-1.22-3.49ZM965.29,1177.34c0,1.05.24,1.85.73,2.4s1.1.82,1.85.82,1.36-.27,1.84-.81c.48-.54.72-1.35.72-2.43s-.23-1.86-.7-2.39c-.47-.52-1.09-.79-1.86-.79s-1.4.27-1.87.8c-.47.53-.71,1.33-.71,2.4Z"/>
        <path class="cls-52" d="M975.66,1178.97l1.83-.18c.11.61.33,1.06.67,1.35.34.29.79.43,1.36.43.61,0,1.06-.13,1.37-.38.31-.26.46-.56.46-.9,0-.22-.06-.41-.19-.56s-.35-.29-.68-.4c-.22-.08-.72-.21-1.5-.41-1.01-.25-1.71-.56-2.12-.92-.57-.51-.86-1.14-.86-1.87,0-.47.13-.92.4-1.33.27-.41.66-.73,1.16-.94.5-.22,1.12-.32,1.83-.32,1.17,0,2.05.26,2.64.77.59.51.9,1.2.93,2.05l-1.88.08c-.08-.48-.25-.82-.52-1.03-.26-.21-.66-.31-1.19-.31s-.97.11-1.28.34c-.2.14-.3.34-.3.58,0,.22.09.41.28.57.24.2.81.41,1.73.62.91.22,1.59.44,2.03.67.44.23.78.55,1.03.95.25.4.37.89.37,1.48,0,.53-.15,1.03-.44,1.5-.3.47-.72.81-1.26,1.04s-1.22.34-2.03.34c-1.18,0-2.08-.27-2.71-.82s-1.01-1.34-1.13-2.38Z"/>
        <path class="cls-52" d="M992.99,1182v-9.31h3.02c1.14,0,1.89.05,2.23.14.53.14.98.44,1.34.91.36.47.54,1.07.54,1.81,0,.57-.1,1.05-.31,1.44-.21.39-.47.7-.79.92-.32.22-.64.37-.97.44-.45.09-1.1.13-1.95.13h-1.23v3.51h-1.88ZM994.87,1174.27v2.64h1.03c.74,0,1.24-.05,1.48-.15.25-.1.45-.25.59-.46.14-.21.21-.45.21-.72,0-.34-.1-.62-.3-.84-.2-.22-.45-.36-.76-.41-.22-.04-.67-.06-1.35-.06h-.91Z"/>
        <path class="cls-52" d="M1003.57,1177.4c0-.95.14-1.74.43-2.39.21-.47.5-.9.87-1.28.37-.38.77-.66,1.2-.84.58-.25,1.25-.37,2.01-.37,1.37,0,2.47.43,3.29,1.28s1.24,2.03,1.24,3.55-.41,2.68-1.23,3.53-1.91,1.27-3.28,1.27-2.48-.42-3.3-1.27c-.82-.84-1.23-2.01-1.23-3.49ZM1005.51,1177.34c0,1.05.24,1.85.73,2.4.49.54,1.11.82,1.85.82s1.36-.27,1.84-.81c.48-.54.72-1.35.72-2.43s-.23-1.86-.7-2.39c-.47-.52-1.09-.79-1.86-.79s-1.4.27-1.87.8-.71,1.33-.71,2.4Z"/>
        <path class="cls-52" d="M1016.36,1182v-9.31h3.96c.99,0,1.72.08,2.17.25s.81.46,1.08.89.41.92.41,1.47c0,.7-.21,1.28-.62,1.73-.41.46-1.02.74-1.84.86.41.24.74.5,1.01.78.27.28.62.79,1.07,1.51l1.14,1.82h-2.25l-1.36-2.03c-.48-.72-.81-1.18-.99-1.37s-.37-.32-.57-.39c-.2-.07-.51-.1-.95-.1h-.38v3.88h-1.88ZM1018.24,1176.63h1.39c.9,0,1.46-.04,1.69-.11s.4-.21.53-.39.19-.42.19-.7c0-.31-.08-.57-.25-.76-.17-.19-.4-.31-.71-.36-.15-.02-.61-.03-1.37-.03h-1.47v2.36Z"/>
        <path class="cls-52" d="M913.87,1197.6v-9.31h2.81l1.69,6.35,1.67-6.35h2.82v9.31h-1.75v-7.33l-1.85,7.33h-1.81l-1.84-7.33v7.33h-1.75Z"/>
        <path class="cls-52" d="M926.63,1193c0-.95.14-1.74.43-2.39.21-.47.5-.9.87-1.28.37-.38.77-.66,1.2-.84.58-.25,1.25-.37,2.01-.37,1.37,0,2.47.43,3.29,1.28s1.24,2.03,1.24,3.55-.41,2.68-1.23,3.53-1.91,1.27-3.28,1.27-2.48-.42-3.3-1.27c-.82-.84-1.23-2.01-1.23-3.49ZM928.57,1192.94c0,1.05.24,1.85.73,2.4.49.54,1.11.82,1.85.82s1.36-.27,1.84-.81c.48-.54.72-1.35.72-2.43s-.23-1.86-.7-2.39c-.47-.52-1.09-.79-1.86-.79s-1.4.27-1.87.8-.71,1.33-.71,2.4Z"/>
        <path class="cls-52" d="M941.79,1197.6l-3.33-9.31h2.04l2.35,6.89,2.28-6.89h1.99l-3.33,9.31h-2.01Z"/>
        <path class="cls-52" d="M950.32,1197.6v-9.31h1.88v9.31h-1.88Z"/>
        <path class="cls-52" d="M956.25,1197.6v-9.31h2.81l1.69,6.35,1.67-6.35h2.82v9.31h-1.75v-7.33l-1.85,7.33h-1.81l-1.84-7.33v7.33h-1.75Z"/>
        <path class="cls-52" d="M969.39,1197.6v-9.31h6.9v1.57h-5.02v2.06h4.67v1.57h-4.67v2.53h5.2v1.57h-7.08Z"/>
        <path class="cls-52" d="M980.37,1197.6v-9.31h1.83l3.81,6.21v-6.21h1.75v9.31h-1.88l-3.75-6.07v6.07h-1.75Z"/>
        <path class="cls-52" d="M994.12,1197.6v-7.73h-2.76v-1.57h7.4v1.57h-2.76v7.73h-1.88Z"/>
        <path class="cls-52" d="M1001.64,1193c0-.95.14-1.74.42-2.39.21-.47.5-.9.87-1.28.37-.38.77-.66,1.2-.84.58-.25,1.25-.37,2.01-.37,1.37,0,2.47.43,3.29,1.28.82.85,1.23,2.03,1.23,3.55s-.41,2.68-1.22,3.53-1.91,1.27-3.28,1.27-2.48-.42-3.3-1.27c-.82-.84-1.22-2.01-1.22-3.49ZM1003.57,1192.94c0,1.05.24,1.85.73,2.4.49.54,1.1.82,1.85.82s1.36-.27,1.84-.81c.48-.54.72-1.35.72-2.43s-.23-1.86-.7-2.39-1.09-.79-1.86-.79-1.4.27-1.87.8-.71,1.33-.71,2.4Z"/>
      </g>
      <text class="cls-31" transform="translate(1205.75 1140)"><tspan x="0" y="0">6</tspan></text>
      <text class="cls-27" transform="translate(1174.87 1182)"><tspan x="0" y="0">REFORMERS</tspan><tspan x="-.06" y="15.6">NO ESTÚDIO</tspan></text>
    </g>
  </g>
  <g id="section-hero">
    <rect class="cls-87" y="108" width="1440" height="840"/>
    <g id="svg-circledots">
      <path class="cls-44" d="M1437.8,308.43c-1.22,0-2.2.99-2.2,2.2s.98,2.2,2.2,2.2,2.2-.99,2.2-2.2-.98-2.2-2.2-2.2Z"/>
      <path class="cls-44" d="M1437.8,288.43c-1.22,0-2.2.99-2.2,2.2s.98,2.2,2.2,2.2,2.2-.99,2.2-2.2-.98-2.2-2.2-2.2Z"/>
      <path class="cls-44" d="M1437.8,268.43c-1.22,0-2.2.99-2.2,2.2s.98,2.2,2.2,2.2,2.2-.99,2.2-2.2-.98-2.2-2.2-2.2Z"/>
      <path class="cls-44" d="M1437.8,248.43c-1.22,0-2.2.99-2.2,2.2s.98,2.2,2.2,2.2,2.2-.99,2.2-2.2-.98-2.2-2.2-2.2Z"/>
      <path class="cls-44" d="M1437.8,228.43c-1.22,0-2.2.99-2.2,2.2s.98,2.2,2.2,2.2,2.2-.99,2.2-2.2-.98-2.2-2.2-2.2Z"/>
      <path class="cls-44" d="M1437.8,208.43c-1.22,0-2.2.99-2.2,2.2s.98,2.2,2.2,2.2,2.2-.99,2.2-2.2-.98-2.2-2.2-2.2Z"/>
      <path class="cls-44" d="M1437.8,188.43c-1.22,0-2.2.99-2.2,2.2s.98,2.2,2.2,2.2,2.2-.99,2.2-2.2-.98-2.2-2.2-2.2Z"/>
      <path class="cls-44" d="M1437.8,168.43c-1.22,0-2.2.99-2.2,2.2s.98,2.2,2.2,2.2,2.2-.99,2.2-2.2-.98-2.2-2.2-2.2Z"/>
      <path class="cls-44" d="M1437.8,148.43c-1.22,0-2.2.99-2.2,2.2s.98,2.2,2.2,2.2,2.2-.99,2.2-2.2-.98-2.2-2.2-2.2Z"/>
      <path class="cls-44" d="M1437.8,128.43c-1.22,0-2.2.99-2.2,2.2s.98,2.2,2.2,2.2,2.2-.99,2.2-2.2-.98-2.2-2.2-2.2Z"/>
      <path class="cls-44" d="M1437.8,112.83c1.22,0,2.2-.98,2.2-2.2s-.98-2.2-2.2-2.2-2.2.99-2.2,2.2.98,2.2,2.2,2.2Z"/>
      <path class="cls-44" d="M1417.8,308.43c-1.22,0-2.2.99-2.2,2.2s.98,2.2,2.2,2.2,2.2-.99,2.2-2.2-.98-2.2-2.2-2.2Z"/>
      <path class="cls-44" d="M1417.8,288.43c-1.22,0-2.2.99-2.2,2.2s.98,2.2,2.2,2.2,2.2-.99,2.2-2.2-.98-2.2-2.2-2.2Z"/>
      <path class="cls-44" d="M1417.8,268.43c-1.22,0-2.2.99-2.2,2.2s.98,2.2,2.2,2.2,2.2-.99,2.2-2.2-.98-2.2-2.2-2.2Z"/>
      <path class="cls-44" d="M1417.8,248.43c-1.22,0-2.2.99-2.2,2.2s.98,2.2,2.2,2.2,2.2-.99,2.2-2.2-.98-2.2-2.2-2.2Z"/>
      <path class="cls-44" d="M1417.8,228.43c-1.22,0-2.2.99-2.2,2.2s.98,2.2,2.2,2.2,2.2-.99,2.2-2.2-.98-2.2-2.2-2.2Z"/>
      <path class="cls-44" d="M1417.8,208.43c-1.22,0-2.2.99-2.2,2.2s.98,2.2,2.2,2.2,2.2-.99,2.2-2.2-.98-2.2-2.2-2.2Z"/>
      <path class="cls-44" d="M1417.8,188.43c-1.22,0-2.2.99-2.2,2.2s.98,2.2,2.2,2.2,2.2-.99,2.2-2.2-.98-2.2-2.2-2.2Z"/>
      <path class="cls-44" d="M1417.8,168.43c-1.22,0-2.2.99-2.2,2.2s.98,2.2,2.2,2.2,2.2-.99,2.2-2.2-.98-2.2-2.2-2.2Z"/>
      <path class="cls-44" d="M1417.8,148.43c-1.22,0-2.2.99-2.2,2.2s.98,2.2,2.2,2.2,2.2-.99,2.2-2.2-.98-2.2-2.2-2.2Z"/>
      <path class="cls-44" d="M1417.8,128.43c-1.22,0-2.2.99-2.2,2.2s.98,2.2,2.2,2.2,2.2-.99,2.2-2.2-.98-2.2-2.2-2.2Z"/>
      <path class="cls-44" d="M1417.8,108.43c-1.22,0-2.2.99-2.2,2.2s.98,2.2,2.2,2.2,2.2-.98,2.2-2.2-.98-2.2-2.2-2.2Z"/>
      <path class="cls-44" d="M1397.8,328.43c-1.22,0-2.2.99-2.2,2.2s.98,2.2,2.2,2.2,2.2-.99,2.2-2.2-.98-2.2-2.2-2.2Z"/>
      <path class="cls-44" d="M1397.8,308.43c-1.22,0-2.2.99-2.2,2.2s.98,2.2,2.2,2.2,2.2-.99,2.2-2.2-.98-2.2-2.2-2.2Z"/>
      <path class="cls-44" d="M1397.8,288.43c-1.22,0-2.2.99-2.2,2.2s.98,2.2,2.2,2.2,2.2-.99,2.2-2.2-.98-2.2-2.2-2.2Z"/>
      <path class="cls-44" d="M1397.8,268.43c-1.22,0-2.2.99-2.2,2.2s.98,2.2,2.2,2.2,2.2-.99,2.2-2.2-.98-2.2-2.2-2.2Z"/>
      <path class="cls-44" d="M1397.8,248.43c-1.22,0-2.2.99-2.2,2.2s.98,2.2,2.2,2.2,2.2-.99,2.2-2.2-.98-2.2-2.2-2.2Z"/>
      <path class="cls-44" d="M1397.8,228.43c-1.22,0-2.2.99-2.2,2.2s.98,2.2,2.2,2.2,2.2-.99,2.2-2.2-.98-2.2-2.2-2.2Z"/>
      <path class="cls-44" d="M1397.8,208.43c-1.22,0-2.2.99-2.2,2.2s.98,2.2,2.2,2.2,2.2-.99,2.2-2.2-.98-2.2-2.2-2.2Z"/>
      <path class="cls-44" d="M1397.8,188.43c-1.22,0-2.2.99-2.2,2.2s.98,2.2,2.2,2.2,2.2-.99,2.2-2.2-.98-2.2-2.2-2.2Z"/>
      <path class="cls-44" d="M1397.8,168.43c-1.22,0-2.2.99-2.2,2.2s.98,2.2,2.2,2.2,2.2-.99,2.2-2.2-.98-2.2-2.2-2.2Z"/>
      <path class="cls-44" d="M1397.8,148.43c-1.22,0-2.2.99-2.2,2.2s.98,2.2,2.2,2.2,2.2-.99,2.2-2.2-.98-2.2-2.2-2.2Z"/>
      <path class="cls-44" d="M1397.8,128.43c-1.22,0-2.2.99-2.2,2.2s.98,2.2,2.2,2.2,2.2-.99,2.2-2.2-.98-2.2-2.2-2.2Z"/>
      <path class="cls-44" d="M1397.8,108.43c-1.22,0-2.2.99-2.2,2.2s.98,2.2,2.2,2.2,2.2-.98,2.2-2.2-.98-2.2-2.2-2.2Z"/>
      <path class="cls-44" d="M1377.8,328.43c-1.22,0-2.2.99-2.2,2.2s.98,2.2,2.2,2.2,2.2-.99,2.2-2.2-.98-2.2-2.2-2.2Z"/>
      <path class="cls-44" d="M1377.8,308.43c-1.22,0-2.2.99-2.2,2.2s.98,2.2,2.2,2.2,2.2-.99,2.2-2.2-.98-2.2-2.2-2.2Z"/>
      <path class="cls-44" d="M1377.8,288.43c-1.22,0-2.2.99-2.2,2.2s.98,2.2,2.2,2.2,2.2-.99,2.2-2.2-.98-2.2-2.2-2.2Z"/>
      <path class="cls-44" d="M1377.8,268.43c-1.22,0-2.2.99-2.2,2.2s.98,2.2,2.2,2.2,2.2-.99,2.2-2.2-.98-2.2-2.2-2.2Z"/>
      <path class="cls-44" d="M1377.8,248.43c-1.22,0-2.2.99-2.2,2.2s.98,2.2,2.2,2.2,2.2-.99,2.2-2.2-.98-2.2-2.2-2.2Z"/>
      <path class="cls-44" d="M1377.8,228.43c-1.22,0-2.2.99-2.2,2.2s.98,2.2,2.2,2.2,2.2-.99,2.2-2.2-.98-2.2-2.2-2.2Z"/>
      <path class="cls-44" d="M1377.8,208.43c-1.22,0-2.2.99-2.2,2.2s.98,2.2,2.2,2.2,2.2-.99,2.2-2.2-.98-2.2-2.2-2.2Z"/>
      <path class="cls-44" d="M1377.8,188.43c-1.22,0-2.2.99-2.2,2.2s.98,2.2,2.2,2.2,2.2-.99,2.2-2.2-.98-2.2-2.2-2.2Z"/>
      <path class="cls-44" d="M1377.8,168.43c-1.22,0-2.2.99-2.2,2.2s.98,2.2,2.2,2.2,2.2-.99,2.2-2.2-.98-2.2-2.2-2.2Z"/>
      <path class="cls-44" d="M1377.8,148.43c-1.22,0-2.2.99-2.2,2.2s.98,2.2,2.2,2.2,2.2-.99,2.2-2.2-.98-2.2-2.2-2.2Z"/>
      <path class="cls-44" d="M1377.8,128.43c-1.22,0-2.2.99-2.2,2.2s.98,2.2,2.2,2.2,2.2-.99,2.2-2.2-.98-2.2-2.2-2.2Z"/>
      <path class="cls-44" d="M1377.8,108.43c-1.22,0-2.2.99-2.2,2.2s.98,2.2,2.2,2.2,2.2-.98,2.2-2.2-.98-2.2-2.2-2.2Z"/>
      <path class="cls-44" d="M1357.8,328.43c-1.22,0-2.2.99-2.2,2.2s.98,2.2,2.2,2.2,2.2-.99,2.2-2.2-.98-2.2-2.2-2.2Z"/>
      <path class="cls-44" d="M1357.8,308.43c-1.22,0-2.2.99-2.2,2.2s.98,2.2,2.2,2.2,2.2-.99,2.2-2.2-.98-2.2-2.2-2.2Z"/>
      <path class="cls-44" d="M1357.8,288.43c-1.22,0-2.2.99-2.2,2.2s.98,2.2,2.2,2.2,2.2-.99,2.2-2.2-.98-2.2-2.2-2.2Z"/>
      <path class="cls-44" d="M1357.8,268.43c-1.22,0-2.2.99-2.2,2.2s.98,2.2,2.2,2.2,2.2-.99,2.2-2.2-.98-2.2-2.2-2.2Z"/>
      <path class="cls-44" d="M1357.8,248.43c-1.22,0-2.2.99-2.2,2.2s.98,2.2,2.2,2.2,2.2-.99,2.2-2.2-.98-2.2-2.2-2.2Z"/>
      <path class="cls-44" d="M1357.8,228.43c-1.22,0-2.2.99-2.2,2.2s.98,2.2,2.2,2.2,2.2-.99,2.2-2.2-.98-2.2-2.2-2.2Z"/>
      <path class="cls-44" d="M1357.8,208.43c-1.22,0-2.2.99-2.2,2.2s.98,2.2,2.2,2.2,2.2-.99,2.2-2.2-.98-2.2-2.2-2.2Z"/>
      <path class="cls-44" d="M1357.8,188.43c-1.22,0-2.2.99-2.2,2.2s.98,2.2,2.2,2.2,2.2-.99,2.2-2.2-.98-2.2-2.2-2.2Z"/>
      <path class="cls-44" d="M1357.8,168.43c-1.22,0-2.2.99-2.2,2.2s.98,2.2,2.2,2.2,2.2-.99,2.2-2.2-.98-2.2-2.2-2.2Z"/>
      <path class="cls-44" d="M1357.8,148.43c-1.22,0-2.2.99-2.2,2.2s.98,2.2,2.2,2.2,2.2-.99,2.2-2.2-.98-2.2-2.2-2.2Z"/>
      <path class="cls-44" d="M1357.8,128.43c-1.22,0-2.2.99-2.2,2.2s.98,2.2,2.2,2.2,2.2-.99,2.2-2.2-.98-2.2-2.2-2.2Z"/>
      <path class="cls-44" d="M1357.8,108.43c-1.22,0-2.2.99-2.2,2.2s.98,2.2,2.2,2.2,2.2-.98,2.2-2.2-.98-2.2-2.2-2.2Z"/>
      <path class="cls-44" d="M1337.8,328.43c-1.22,0-2.2.99-2.2,2.2s.98,2.2,2.2,2.2,2.2-.99,2.2-2.2-.98-2.2-2.2-2.2Z"/>
      <path class="cls-44" d="M1337.8,308.43c-1.22,0-2.2.99-2.2,2.2s.98,2.2,2.2,2.2,2.2-.99,2.2-2.2-.98-2.2-2.2-2.2Z"/>
      <path class="cls-44" d="M1337.8,288.43c-1.22,0-2.2.99-2.2,2.2s.98,2.2,2.2,2.2,2.2-.99,2.2-2.2-.98-2.2-2.2-2.2Z"/>
      <path class="cls-44" d="M1337.8,268.43c-1.22,0-2.2.99-2.2,2.2s.98,2.2,2.2,2.2,2.2-.99,2.2-2.2-.98-2.2-2.2-2.2Z"/>
      <path class="cls-44" d="M1337.8,248.43c-1.22,0-2.2.99-2.2,2.2s.98,2.2,2.2,2.2,2.2-.99,2.2-2.2-.98-2.2-2.2-2.2Z"/>
      <path class="cls-44" d="M1337.8,228.43c-1.22,0-2.2.99-2.2,2.2s.98,2.2,2.2,2.2,2.2-.99,2.2-2.2-.98-2.2-2.2-2.2Z"/>
      <path class="cls-44" d="M1337.8,208.43c-1.22,0-2.2.99-2.2,2.2s.98,2.2,2.2,2.2,2.2-.99,2.2-2.2-.98-2.2-2.2-2.2Z"/>
      <path class="cls-44" d="M1337.8,188.43c-1.22,0-2.2.99-2.2,2.2s.98,2.2,2.2,2.2,2.2-.99,2.2-2.2-.98-2.2-2.2-2.2Z"/>
      <path class="cls-44" d="M1337.8,168.43c-1.22,0-2.2.99-2.2,2.2s.98,2.2,2.2,2.2,2.2-.99,2.2-2.2-.98-2.2-2.2-2.2Z"/>
      <path class="cls-44" d="M1337.8,148.43c-1.22,0-2.2.99-2.2,2.2s.98,2.2,2.2,2.2,2.2-.99,2.2-2.2-.98-2.2-2.2-2.2Z"/>
      <path class="cls-44" d="M1337.8,128.43c-1.22,0-2.2.99-2.2,2.2s.98,2.2,2.2,2.2,2.2-.99,2.2-2.2-.98-2.2-2.2-2.2Z"/>
      <path class="cls-44" d="M1337.8,108.43c-1.22,0-2.2.99-2.2,2.2s.98,2.2,2.2,2.2,2.2-.98,2.2-2.2-.98-2.2-2.2-2.2Z"/>
      <path class="cls-44" d="M1317.8,328.43c-1.22,0-2.2.99-2.2,2.2s.98,2.2,2.2,2.2,2.2-.99,2.2-2.2-.98-2.2-2.2-2.2Z"/>
      <path class="cls-44" d="M1317.8,308.43c-1.22,0-2.2.99-2.2,2.2s.98,2.2,2.2,2.2,2.2-.99,2.2-2.2-.98-2.2-2.2-2.2Z"/>
      <path class="cls-44" d="M1317.8,288.43c-1.22,0-2.2.99-2.2,2.2s.98,2.2,2.2,2.2,2.2-.99,2.2-2.2-.98-2.2-2.2-2.2Z"/>
      <path class="cls-44" d="M1317.8,268.43c-1.22,0-2.2.99-2.2,2.2s.98,2.2,2.2,2.2,2.2-.99,2.2-2.2-.98-2.2-2.2-2.2Z"/>
      <path class="cls-44" d="M1317.8,248.43c-1.22,0-2.2.99-2.2,2.2s.98,2.2,2.2,2.2,2.2-.99,2.2-2.2-.98-2.2-2.2-2.2Z"/>
      <path class="cls-44" d="M1317.8,228.43c-1.22,0-2.2.99-2.2,2.2s.98,2.2,2.2,2.2,2.2-.99,2.2-2.2-.98-2.2-2.2-2.2Z"/>
      <path class="cls-44" d="M1317.8,208.43c-1.22,0-2.2.99-2.2,2.2s.98,2.2,2.2,2.2,2.2-.99,2.2-2.2-.98-2.2-2.2-2.2Z"/>
      <path class="cls-44" d="M1317.8,188.43c-1.22,0-2.2.99-2.2,2.2s.98,2.2,2.2,2.2,2.2-.99,2.2-2.2-.98-2.2-2.2-2.2Z"/>
      <path class="cls-44" d="M1317.8,168.43c-1.22,0-2.2.99-2.2,2.2s.98,2.2,2.2,2.2,2.2-.99,2.2-2.2-.98-2.2-2.2-2.2Z"/>
      <path class="cls-44" d="M1317.8,148.43c-1.22,0-2.2.99-2.2,2.2s.98,2.2,2.2,2.2,2.2-.99,2.2-2.2-.98-2.2-2.2-2.2Z"/>
      <path class="cls-44" d="M1317.8,128.43c-1.22,0-2.2.99-2.2,2.2s.98,2.2,2.2,2.2,2.2-.99,2.2-2.2-.98-2.2-2.2-2.2Z"/>
      <path class="cls-44" d="M1317.8,108.43c-1.22,0-2.2.99-2.2,2.2s.98,2.2,2.2,2.2,2.2-.98,2.2-2.2-.98-2.2-2.2-2.2Z"/>
      <path class="cls-44" d="M1297.8,328.43c-1.22,0-2.2.99-2.2,2.2s.98,2.2,2.2,2.2,2.2-.99,2.2-2.2-.98-2.2-2.2-2.2Z"/>
      <path class="cls-44" d="M1297.8,308.43c-1.22,0-2.2.99-2.2,2.2s.98,2.2,2.2,2.2,2.2-.99,2.2-2.2-.98-2.2-2.2-2.2Z"/>
      <path class="cls-44" d="M1297.8,288.43c-1.22,0-2.2.99-2.2,2.2s.98,2.2,2.2,2.2,2.2-.99,2.2-2.2-.98-2.2-2.2-2.2Z"/>
      <path class="cls-44" d="M1297.8,268.43c-1.22,0-2.2.99-2.2,2.2s.98,2.2,2.2,2.2,2.2-.99,2.2-2.2-.98-2.2-2.2-2.2Z"/>
      <path class="cls-44" d="M1297.8,248.43c-1.22,0-2.2.99-2.2,2.2s.98,2.2,2.2,2.2,2.2-.99,2.2-2.2-.98-2.2-2.2-2.2Z"/>
      <path class="cls-44" d="M1297.8,228.43c-1.22,0-2.2.99-2.2,2.2s.98,2.2,2.2,2.2,2.2-.99,2.2-2.2-.98-2.2-2.2-2.2Z"/>
      <path class="cls-44" d="M1297.8,208.43c-1.22,0-2.2.99-2.2,2.2s.98,2.2,2.2,2.2,2.2-.99,2.2-2.2-.98-2.2-2.2-2.2Z"/>
      <path class="cls-44" d="M1297.8,188.43c-1.22,0-2.2.99-2.2,2.2s.98,2.2,2.2,2.2,2.2-.99,2.2-2.2-.98-2.2-2.2-2.2Z"/>
      <path class="cls-44" d="M1297.8,168.43c-1.22,0-2.2.99-2.2,2.2s.98,2.2,2.2,2.2,2.2-.99,2.2-2.2-.98-2.2-2.2-2.2Z"/>
      <path class="cls-44" d="M1297.8,148.43c-1.22,0-2.2.99-2.2,2.2s.98,2.2,2.2,2.2,2.2-.99,2.2-2.2-.98-2.2-2.2-2.2Z"/>
      <path class="cls-44" d="M1297.8,128.43c-1.22,0-2.2.99-2.2,2.2s.98,2.2,2.2,2.2,2.2-.99,2.2-2.2-.98-2.2-2.2-2.2Z"/>
      <path class="cls-44" d="M1297.8,108.43c-1.22,0-2.2.99-2.2,2.2s.98,2.2,2.2,2.2,2.2-.98,2.2-2.2-.98-2.2-2.2-2.2Z"/>
      <path class="cls-44" d="M1277.8,328.43c-1.22,0-2.2.99-2.2,2.2s.98,2.2,2.2,2.2,2.2-.99,2.2-2.2-.98-2.2-2.2-2.2Z"/>
      <path class="cls-44" d="M1277.8,308.43c-1.22,0-2.2.99-2.2,2.2s.98,2.2,2.2,2.2,2.2-.99,2.2-2.2-.98-2.2-2.2-2.2Z"/>
      <path class="cls-44" d="M1277.8,288.43c-1.22,0-2.2.99-2.2,2.2s.98,2.2,2.2,2.2,2.2-.99,2.2-2.2-.98-2.2-2.2-2.2Z"/>
      <path class="cls-44" d="M1277.8,268.43c-1.22,0-2.2.99-2.2,2.2s.98,2.2,2.2,2.2,2.2-.99,2.2-2.2-.98-2.2-2.2-2.2Z"/>
      <path class="cls-44" d="M1277.8,248.43c-1.22,0-2.2.99-2.2,2.2s.98,2.2,2.2,2.2,2.2-.99,2.2-2.2-.98-2.2-2.2-2.2Z"/>
      <path class="cls-44" d="M1277.8,228.43c-1.22,0-2.2.99-2.2,2.2s.98,2.2,2.2,2.2,2.2-.99,2.2-2.2-.98-2.2-2.2-2.2Z"/>
      <path class="cls-44" d="M1277.8,208.43c-1.22,0-2.2.99-2.2,2.2s.98,2.2,2.2,2.2,2.2-.99,2.2-2.2-.98-2.2-2.2-2.2Z"/>
      <path class="cls-44" d="M1277.8,188.43c-1.22,0-2.2.99-2.2,2.2s.98,2.2,2.2,2.2,2.2-.99,2.2-2.2-.98-2.2-2.2-2.2Z"/>
      <path class="cls-44" d="M1277.8,168.43c-1.22,0-2.2.99-2.2,2.2s.98,2.2,2.2,2.2,2.2-.99,2.2-2.2-.98-2.2-2.2-2.2Z"/>
      <path class="cls-44" d="M1277.8,148.43c-1.22,0-2.2.99-2.2,2.2s.98,2.2,2.2,2.2,2.2-.99,2.2-2.2-.98-2.2-2.2-2.2Z"/>
      <path class="cls-44" d="M1277.8,128.43c-1.22,0-2.2.99-2.2,2.2s.98,2.2,2.2,2.2,2.2-.99,2.2-2.2-.98-2.2-2.2-2.2Z"/>
      <path class="cls-44" d="M1277.8,108.43c-1.22,0-2.2.99-2.2,2.2s.98,2.2,2.2,2.2,2.2-.98,2.2-2.2-.98-2.2-2.2-2.2Z"/>
      <path class="cls-44" d="M1257.8,308.43c-1.21,0-2.2.99-2.2,2.2s.98,2.2,2.2,2.2,2.2-.99,2.2-2.2-.98-2.2-2.2-2.2Z"/>
      <path class="cls-44" d="M1257.8,288.43c-1.21,0-2.2.99-2.2,2.2s.98,2.2,2.2,2.2,2.2-.99,2.2-2.2-.98-2.2-2.2-2.2Z"/>
      <path class="cls-44" d="M1257.8,268.43c-1.21,0-2.2.99-2.2,2.2s.98,2.2,2.2,2.2,2.2-.99,2.2-2.2-.98-2.2-2.2-2.2Z"/>
      <path class="cls-44" d="M1257.8,248.43c-1.21,0-2.2.99-2.2,2.2s.98,2.2,2.2,2.2,2.2-.99,2.2-2.2-.98-2.2-2.2-2.2Z"/>
      <path class="cls-44" d="M1257.8,228.43c-1.21,0-2.2.99-2.2,2.2s.98,2.2,2.2,2.2,2.2-.99,2.2-2.2-.98-2.2-2.2-2.2Z"/>
      <path class="cls-44" d="M1257.8,208.43c-1.21,0-2.2.99-2.2,2.2s.98,2.2,2.2,2.2,2.2-.99,2.2-2.2-.98-2.2-2.2-2.2Z"/>
      <path class="cls-44" d="M1257.8,188.43c-1.21,0-2.2.99-2.2,2.2s.98,2.2,2.2,2.2,2.2-.99,2.2-2.2-.98-2.2-2.2-2.2Z"/>
      <path class="cls-44" d="M1257.8,168.43c-1.21,0-2.2.99-2.2,2.2s.98,2.2,2.2,2.2,2.2-.99,2.2-2.2-.98-2.2-2.2-2.2Z"/>
      <path class="cls-44" d="M1257.8,148.43c-1.21,0-2.2.99-2.2,2.2s.98,2.2,2.2,2.2,2.2-.99,2.2-2.2-.98-2.2-2.2-2.2Z"/>
      <path class="cls-44" d="M1257.8,128.43c-1.21,0-2.2.99-2.2,2.2s.98,2.2,2.2,2.2,2.2-.99,2.2-2.2-.98-2.2-2.2-2.2Z"/>
      <path class="cls-44" d="M1257.8,108.43c-1.21,0-2.2.99-2.2,2.2s.98,2.2,2.2,2.2,2.2-.98,2.2-2.2-.98-2.2-2.2-2.2Z"/>
      <path class="cls-44" d="M1237.8,288.43c-1.21,0-2.2.99-2.2,2.2s.98,2.2,2.2,2.2,2.2-.99,2.2-2.2-.98-2.2-2.2-2.2Z"/>
      <path class="cls-44" d="M1237.8,268.43c-1.21,0-2.2.99-2.2,2.2s.98,2.2,2.2,2.2,2.2-.99,2.2-2.2-.98-2.2-2.2-2.2Z"/>
      <path class="cls-44" d="M1237.8,248.43c-1.21,0-2.2.99-2.2,2.2s.98,2.2,2.2,2.2,2.2-.99,2.2-2.2-.98-2.2-2.2-2.2Z"/>
      <path class="cls-44" d="M1237.8,228.43c-1.21,0-2.2.99-2.2,2.2s.98,2.2,2.2,2.2,2.2-.99,2.2-2.2-.98-2.2-2.2-2.2Z"/>
      <path class="cls-44" d="M1237.8,208.43c-1.21,0-2.2.99-2.2,2.2s.98,2.2,2.2,2.2,2.2-.99,2.2-2.2-.98-2.2-2.2-2.2Z"/>
      <path class="cls-44" d="M1237.8,188.43c-1.21,0-2.2.99-2.2,2.2s.98,2.2,2.2,2.2,2.2-.99,2.2-2.2-.98-2.2-2.2-2.2Z"/>
      <path class="cls-44" d="M1237.8,168.43c-1.21,0-2.2.99-2.2,2.2s.98,2.2,2.2,2.2,2.2-.99,2.2-2.2-.98-2.2-2.2-2.2Z"/>
      <path class="cls-44" d="M1237.8,148.43c-1.21,0-2.2.99-2.2,2.2s.98,2.2,2.2,2.2,2.2-.99,2.2-2.2-.98-2.2-2.2-2.2Z"/>
      <path class="cls-44" d="M1237.8,128.43c-1.21,0-2.2.99-2.2,2.2s.98,2.2,2.2,2.2,2.2-.99,2.2-2.2-.98-2.2-2.2-2.2Z"/>
      <path class="cls-44" d="M1237.8,108.43c-1.21,0-2.2.99-2.2,2.2s.98,2.2,2.2,2.2,2.2-.98,2.2-2.2-.98-2.2-2.2-2.2Z"/>
      <path class="cls-44" d="M1217.8,268.43c-1.21,0-2.2.99-2.2,2.2s.98,2.2,2.2,2.2,2.2-.99,2.2-2.2-.98-2.2-2.2-2.2Z"/>
      <path class="cls-44" d="M1217.8,248.43c-1.21,0-2.2.99-2.2,2.2s.98,2.2,2.2,2.2,2.2-.99,2.2-2.2-.98-2.2-2.2-2.2Z"/>
      <path class="cls-44" d="M1217.8,228.43c-1.21,0-2.2.99-2.2,2.2s.98,2.2,2.2,2.2,2.2-.99,2.2-2.2-.98-2.2-2.2-2.2Z"/>
      <path class="cls-44" d="M1217.8,208.43c-1.21,0-2.2.99-2.2,2.2s.98,2.2,2.2,2.2,2.2-.99,2.2-2.2-.98-2.2-2.2-2.2Z"/>
      <path class="cls-44" d="M1217.8,188.43c-1.21,0-2.2.99-2.2,2.2s.98,2.2,2.2,2.2,2.2-.99,2.2-2.2-.98-2.2-2.2-2.2Z"/>
      <path class="cls-44" d="M1217.8,168.43c-1.21,0-2.2.99-2.2,2.2s.98,2.2,2.2,2.2,2.2-.99,2.2-2.2-.98-2.2-2.2-2.2Z"/>
      <path class="cls-44" d="M1217.8,148.43c-1.21,0-2.2.99-2.2,2.2s.98,2.2,2.2,2.2,2.2-.99,2.2-2.2-.98-2.2-2.2-2.2Z"/>
      <path class="cls-44" d="M1220,130.63c0-.76-.38-1.42-.96-1.82-.78,1.24-1.53,2.49-2.27,3.75.31.17.66.27,1.04.27,1.22,0,2.2-.99,2.2-2.2Z"/>
      <path class="cls-44" d="M1200,190.63c0-1.18-.93-2.13-2.09-2.19-.18,1.44-.33,2.9-.46,4.35.12.02.23.04.35.04,1.22,0,2.2-.99,2.2-2.2Z"/>
      <path class="cls-44" d="M1200,210.63c0-1.21-.98-2.2-2.2-2.2-.34,0-.66.08-.94.22.02,1.34.06,2.68.12,4.02.25.1.53.16.82.16,1.22,0,2.2-.99,2.2-2.2Z"/>
      <path class="cls-44" d="M1200,230.63c0-.96-.62-1.77-1.48-2.07.19,1.27.41,2.53.63,3.79.51-.4.84-1.02.84-1.72Z"/>
      <path class="cls-44" d="M1317.8,348.43c-.89,0-1.66.53-2,1.3,1.39.26,2.78.5,4.18.72-.09-1.13-1.03-2.02-2.18-2.02Z"/>
      <path class="cls-44" d="M1340,350.63c0-1.21-.98-2.2-2.2-2.2s-2.2.99-2.2,2.2c0,.56.21,1.06.55,1.45,1.06.05,2.13.09,3.2.11.4-.4.65-.95.65-1.56Z"/>
      <path class="cls-44" d="M1357.8,348.43c-1.22,0-2.2.99-2.2,2.2,0,.37.1.71.26,1.02,1.35-.12,2.7-.26,4.04-.41.06-.19.09-.39.09-.6,0-1.21-.98-2.2-2.2-2.2Z"/>
      <path class="cls-44" d="M1417.8,328.43c-1.22,0-2.2.99-2.2,2.2,0,.69.33,1.31.83,1.71,1.19-.69,2.36-1.41,3.53-2.13-.2-1.01-1.09-1.78-2.16-1.78Z"/>
    </g>
    <g id="svg-topwaves">
      <path class="cls-15" d="M0,780c218.97-70.38,479.48-17.23,623,33,140,49,120.88,71.45,382.13,135H0v-168Z"/>
      <path class="cls-65" d="M0,830c270-40,480-10,680,118H0v-118Z"/>
    </g>
    <text class="cls-39" transform="translate(92 230)"><tspan class="cls-67" x="0" y="0">ONIX FIT PIL</tspan><tspan class="cls-84" x="106.18" y="0">A</tspan><tspan class="cls-67" x="116.89" y="0">TES •</tspan><tspan class="cls-69" x="161.78" y="0"> </tspan><tspan class="cls-72" x="167.19" y="0">ARACAJU</tspan></text>
    <g class="cls-29">
      <text class="cls-42" transform="translate(92 348.3)"><tspan x="0" y="0">O Pilates que você</tspan></text>
      <text class="cls-61" transform="translate(637.03 348.3)"><tspan x="0" y="0"> </tspan></text>
      <text class="cls-42" transform="translate(92 418.07)"><tspan x="0" y="0">conhece está prestes</tspan></text>
      <text class="cls-61" transform="translate(703.59 418.07)"><tspan x="0" y="0"> </tspan></text>
      <text class="cls-28" transform="translate(92 487.83)"><tspan x="0" y="0">a evoluir.</tspan></text>
    </g>
    <g class="cls-29">
      <text class="cls-38" transform="translate(96 590)"><tspan x="0" y="0">Uma experiência intensa, dinâmica e moderna,</tspan></text>
      <text class="cls-57" transform="translate(512.23 590)"><tspan x="0" y="0"> </tspan></text>
      <text class="cls-38" transform="translate(96 619)"><tspan x="0" y="0">criada para quem quer força, mobilidade e energia</tspan></text>
      <text class="cls-57" transform="translate(513.24 619)"><tspan x="0" y="0"> </tspan></text>
      <text class="cls-38" transform="translate(96 648)"><tspan x="0" y="0">em uma aula que mantém o corpo em movimento.</tspan></text>
    </g>
    <g id="hero-buttons">
      <path class="cls-59" d="M121,714h160c16.02,0,29,12.98,29,29h0c0,16.02-12.98,29-29,29H121c-16.02,0-29-12.98-29-29h0c0-16.02,12.98-29,29-29Z"/>
      <text class="cls-11" transform="translate(112.51 750)"><tspan class="cls-74" x="0" y="0">CONHECER O MÉ</tspan><tspan class="cls-9" x="132.71" y="0">T</tspan><tspan class="cls-74" x="142" y="0">ODO</tspan></text>
      <path class="cls-6" d="M357,714h118c16.02,0,29,12.98,29,29h0c0,16.02-12.98,29-29,29h-118c-16.02,0-29-12.98-29-29h0c0-16.02,12.98-29,29-29Z"/>
      <text class="cls-33" transform="translate(355.94 750)"><tspan x="0" y="0">VER HORÁRIOS</tspan></text>
    </g>
    <g id="img-evoluir">
      <g class="cls-75">
        <image width="1365" height="2048" transform="translate(790 164) scale(.37)" xlink:href="../../../../My Drive/{ Instituto }/FitPilates/Site/Fotos/Marcia_RenoveSE.jpg"/>
      </g>
    </g>
  </g>
  <g id="header">
    <rect class="cls-52" width="1440" height="108"/>
    <g id="header-nav">
      <text class="cls-46" transform="translate(500 65)"><tspan class="cls-63" x="0" y="0">O MÉ</tspan><tspan class="cls-80" x="38.97" y="0">T</tspan><tspan class="cls-63" x="48.07" y="0">ODO</tspan></text>
      <text class="cls-46" transform="translate(617.98 65)"><tspan class="cls-73" x="0" y="0">A</tspan><tspan class="cls-64" x="10.39" y="0" xml:space="preserve"> EXPERIÊNCI</tspan><tspan class="cls-73" x="107.86" y="0">A</tspan></text>
      <text class="cls-17" transform="translate(772.57 65)"><tspan x="0" y="0">HORÁRIOS</tspan></text>
      <text class="cls-46" transform="translate(902.91 65)"><tspan class="cls-63" x="0" y="0">ESTRUTUR</tspan><tspan class="cls-82" x="82.6" y="0">A</tspan></text>
    </g>
    <g id="header-actions">
      <path class="cls-6" d="M1088,30h97c13.25,0,24,10.75,24,24h0c0,13.25-10.75,24-24,24h-97c-13.25,0-24-10.75-24-24h0c0-13.25,10.75-24,24-24Z"/>
      <text class="cls-33" transform="translate(1085.99 60)"><tspan x="0" y="0">VER PLANOS</tspan></text>
      <path class="cls-59" d="M1248,30h102c13.25,0,24,10.75,24,24h0c0,13.25-10.75,24-24,24h-102c-13.25,0-24-10.75-24-24h0c0-13.25,10.75-24,24-24Z"/>
      <text class="cls-11" transform="translate(1256.75 60)"><tspan class="cls-74" x="0" y="0">RESE</tspan><tspan class="cls-9" x="42.1" y="0">R</tspan><tspan class="cls-79" x="52.95" y="0">V</tspan><tspan class="cls-74" x="62.24" y="0">AR</tspan></text>
    </g>
    <g id="svg-onixfitlogo-2" data-name="svg-onixfitlogo">
      <g>
        <path class="cls-65" d="M185.34,40.76c0,11.44-9.27,20.71-20.71,20.71s-20.71-9.27-20.71-20.71,9.27-20.71,20.71-20.71c11.43.01,20.7,9.28,20.71,20.71ZM178.44,40.76c0-7.63-6.18-13.81-13.81-13.81s-13.81,6.18-13.81,13.81,6.18,13.81,13.81,13.81c7.62,0,13.8-6.19,13.81-13.81Z"/>
        <path class="cls-65" d="M224.15,20.05v41.57l-25.89-25.31v25.15h-6.9V19.9l25.89,25.31v-25.16h6.9Z"/>
        <path class="cls-65" d="M230.19,61.46V20.05h6.9v41.41h-6.9Z"/>
        <path class="cls-65" d="M265.16,40.75l13.74,20.7h-8.29l-9.6-14.46-9.6,14.46h-8.29l13.74-20.7-13.75-20.71h8.29l9.6,14.47,9.6-14.47h8.28l-13.75,20.71Z"/>
      </g>
      <g>
        <path class="cls-65" d="M108.74,18.08c-11.96,0-21.81,9.73-21.96,21.68,0,.09,0,.46,0,.56.15,5.69,4.73,10.15,10.43,10.15,1.33,0,2.59-.25,3.76-.7l-1.34-1.24v-16.99l9.23-8.49,6.04,5.55c1.64-.77,3.46-1.21,5.39-1.21,3.03,0,5.91,1.06,8.19,3.01-3.59-7.29-11.11-12.34-19.73-12.34Z"/>
        <path class="cls-62" d="M130.7,39.77c-.15-5.69-4.73-10.16-10.43-10.16-1.27,0-2.48.23-3.61.64l1.41,1.3v16.99l-9.23,8.49-6.11-5.62c-1.67.82-3.55,1.28-5.53,1.28-3.03,0-5.91-1.06-8.19-3.01,3.59,7.29,11.11,12.34,19.73,12.34,11.96,0,21.81-9.73,21.96-21.68h0c0-.09,0-.46,0-.56Z"/>
      </g>
      <path class="cls-65" d="M141.81,68.43c.6,0,1.2,0,1.8,0-.15,1.78-.47,5.41-.47,5.41h3.27l-.15,1.72h-3.27c-.44,6.3-.55,6.2-1.09,12.5-.22,2.57,2.3,2.32,3.07,2.3l-.14,1.6h-1.83c-1.77,0-3.12-1.46-2.91-3.8l1.1-12.61h-2.58s.15-1.72.15-1.72c.8,0,1.78-.01,2.58,0,0,0,.33-3.59.47-5.4Z"/>
      <path class="cls-65" d="M131.57,79.12c.5-2.94,1.69-3.63,2.15-5.5-1.83,1.71-3.04,2.18-3.88,4.49-.75,2.06.35,4.54-1.06,8.75-.57,1.72-.75,3.09-.99,5.09,1.95-3.08,3.5-3.71,3.64-9.17.04-1.39-.11-2.27.13-3.67Z"/>
      <path class="cls-62" d="M131.56,73.62c-.1,1.15-1.11,2.08-2.26,2.08s-2-.93-1.9-2.08,1.11-2.08,2.26-2.08,2,.93,1.9,2.08Z"/>
      <path class="cls-65" d="M122.36,75.28h-3.4c0-.06.27-3.18.49-4.03.43-1.54,2.06-2.02,3.43-2.09.05-.59.11-1.18.15-1.76-1.67,0-3.61.46-4.66,1.99-.5.72-.75,1.47-.82,2.29l-.32,3.6h-2.54l-.15,1.72h2.54c-.58,6.56-.73,8.39-1.31,14.95h1.72l1.29-14.95h3.41l.15-1.72Z"/>
      <g>
        <path class="cls-65" d="M167.43,73.37c-1.08,0-2.9.06-4.28.37v17.88h2.75v-6.81s2.73.07,4.33-.29c1.6-.35,4.02-1.82,4.02-5.21,0-3.1-1.97-5.95-6.81-5.95ZM167.23,82.46h-1.33v-6.64c.45-.04,1.03-.07,1.73-.07,3.1,0,3.73,2.07,3.73,3.54,0,2.04-1.45,3.16-4.13,3.16Z"/>
        <rect class="cls-65" x="183.3" y="73.52" width="2.75" height="18.1"/>
        <polygon class="cls-65" points="198.62 73.52 195.87 73.52 195.87 91.63 205.44 91.63 205.44 89.24 198.62 89.24 198.62 73.52"/>
        <path class="cls-65" d="M217.93,73.52h-2.63c-.43.91-4.08,12.15-5.52,16.52l-.53,1.58h2.86l1.94-6.03h5.07l1.91,6.03h2.97l-.51-1.51c-1.43-4.31-5.13-15.67-5.57-16.59ZM214.77,83.37l1.84-5.72,1.81,5.72h-3.65Z"/>
        <polygon class="cls-65" points="226.57 75.91 231.23 75.91 231.23 91.63 234 91.63 234 75.91 238.65 75.91 238.65 73.52 226.57 73.52 226.57 75.91"/>
        <polygon class="cls-65" points="246.22 82.38 252.43 82.38 252.43 80.09 246.22 80.09 246.22 75.86 253.19 75.86 253.19 73.52 243.47 73.52 243.47 91.63 253.72 91.63 253.72 89.29 246.22 89.29 246.22 82.38"/>
        <path class="cls-65" d="M265.53,80.8c-1.78-.9-3.23-2.06-3.38-3.19-.28-2.16,3.21-2.74,5.98-1.2l.85-2.23c-.57-.33-2.01-1-4.26-1-1.63,0-2.92.39-3.87,1.17-.95.78-1.42,1.85-1.42,3.22,0,5.13,7.87,5.17,7.97,8.67.05,1.56-1.17,3.31-3.64,3.33-2.01.02-3.12-.58-3.83-.98l-.81,2.25c.21.12,2.22,1.11,4.83,1.11,1.86,0,3.55-.8,4.38-1.71,1.21-1.32,1.69-2.73,1.69-4.09,0-1.8-.99-3.59-4.49-5.36Z"/>
      </g>
    </g>
  </g>
</svg>